<svg width="142" height="43" fill="none" xmlns="http://www.w3.org/2000/svg"><path opacity=".45" fill-rule="evenodd" clip-rule="evenodd" d="m41.177 30.344-5.345 6.38a.583.583 0 0 1-.852.049.585.585 0 0 1-.162-.27l-1.68-6.119-4.643 7.332a.586.586 0 0 1-.99 0l-4.643-7.332-1.68 6.119a.586.586 0 0 1-1.014.22l-5.346-6.38-.32-2.207 2.94-6.787a.586.586 0 0 1 1.033-.08l4.387 6.867 4.573-11.838a.586.586 0 0 1 1.13 0l4.573 11.838 4.386-6.867a.59.59 0 0 1 .835-.164.586.586 0 0 1 .198.244l2.94 6.787-.32 2.208ZM28 36.307l-4.719-7.45L28 18.666l4.719 10.19-4.72 7.45Zm7.652-1.193L33.5 29.5l4.422-6.67 2.734 6.311-5.004 5.973Zm-15.304 0-5.005-5.973 2.735-6.31L22.5 29.5l-2.152 5.614Z" fill="#E8C662"/><path d="M5 4.5 20.5 37 28 16.5 35.5 37 52 4.5 37 41.816 28 23.5l-8.826 18.316L5 4.5Z" fill="url(#a)"/><path d="M20.5 37 5 4.5l14.174 37.316M20.5 37 28 16.5 35.5 37m-15 0-1.326 4.816m0 0L28 23.5l9 18.316M35.5 37 52 4.5 37 41.816M35.5 37l1.5 4.816" stroke="url(#b)" stroke-linecap="round" stroke-linejoin="round"/><path opacity=".6" d="M74.642 4.523 76 6.544l1.359-2.02L76 1.758l-1.358 2.764Zm5.394.131.802 1.743 1.553-4.391-2.355 2.648ZM69.609 2.006l1.554 4.39.801-1.742-2.355-2.648Z" fill="#E8C662"/><path d="m56.8 17.696.144-.48h4.152l-.144.48H56.8Zm2.448-.48c.528 0 .96-.104 1.296-.312.336-.224.608-.504.816-.84a5.86 5.86 0 0 0 .552-1.032c.144-.368.28-.696.408-.984h.552a38.78 38.78 0 0 0-.648 2.088c-.112.48-.224.92-.336 1.32-.064.256-.136.536-.216.84-.064.288-.144.64-.24 1.056-.08.4-.184.904-.312 1.512h-.552c.048-.384.096-.76.144-1.128.048-.384.04-.728-.024-1.032a1.063 1.063 0 0 0-.432-.72c-.24-.192-.624-.288-1.152-.288l.144-.48Zm6.36-3.888c.16-.944.224-1.688.192-2.232-.032-.56-.232-.952-.6-1.176-.352-.24-.952-.36-1.8-.36h-1.752c-.544 0-.968.048-1.272.144-.288.08-.52.264-.696.552-.176.272-.344.704-.504 1.296l-3.192 11.904c-.16.576-.232 1.008-.216 1.296.032.288.176.48.432.576.256.08.656.12 1.2.12h1.752c1.008 0 1.808-.136 2.4-.408.592-.272 1.088-.712 1.488-1.32.4-.624.792-1.464 1.176-2.52h.552a13.817 13.817 0 0 0-.528 1.728c-.08.304-.184.744-.312 1.32-.128.56-.24 1.144-.336 1.752a71.104 71.104 0 0 0-2.76-.048 177.137 177.137 0 0 0-2.736-.024h-1.368c-.544 0-1.136.008-1.776.024-.64 0-1.288.008-1.944.024-.656 0-1.272.008-1.848.024l.12-.48c.544-.032.968-.096 1.272-.192a1.18 1.18 0 0 0 .696-.576c.176-.288.344-.72.504-1.296l3.192-11.904c.16-.592.224-1.024.192-1.296-.016-.288-.152-.48-.408-.576-.24-.112-.632-.176-1.176-.192l.12-.48 1.872.048c.656 0 1.304.008 1.944.024h5.52c.896-.016 1.696-.04 2.4-.072a28.09 28.09 0 0 0-.552 1.632c-.16.528-.28.928-.36 1.2-.08.288-.152.568-.216.84l-.12.648h-.552Zm10.929-4.296c1.52 0 2.648.28 3.384.84.752.56 1.128 1.304 1.128 2.232 0 .816-.24 1.552-.72 2.208a6.62 6.62 0 0 1-1.848 1.656c-.752.448-1.536.8-2.352 1.056 1.472.24 2.496.72 3.072 1.44.576.704.864 1.528.864 2.472 0 .864-.208 1.616-.624 2.256a5.168 5.168 0 0 1-1.656 1.56 8.194 8.194 0 0 1-2.304.936c-.848.208-1.704.312-2.568.312-.608 0-1.24-.008-1.896-.024-.656-.032-1.4-.048-2.232-.048-.368 0-.736.008-1.104.024-.368 0-.712.008-1.032.024-.304 0-.568.008-.792.024l.096-.48c.544-.032.968-.096 1.272-.192.304-.096.544-.288.72-.576.176-.288.336-.72.48-1.296l3.168-11.904a7.09 7.09 0 0 0 .192-1.152c.016-.304-.096-.528-.336-.672-.224-.16-.648-.24-1.272-.24l.12-.48c.224.016.488.032.792.048.304 0 .632.008.984.024h1.08c.56 0 1.112-.008 1.656-.024.56-.016 1.136-.024 1.728-.024Zm-4.56 8.352.096-.408h1.872c.976 0 1.816-.216 2.52-.648a4.633 4.633 0 0 0 1.632-1.752c.384-.72.576-1.488.576-2.304 0-.944-.208-1.64-.624-2.088-.4-.464-1.056-.696-1.968-.696-.704 0-1.2.112-1.488.336-.288.208-.52.664-.696 1.368l-3.24 12.264c-.128.48-.2.872-.216 1.176 0 .288.104.496.312.624.208.128.584.192 1.128.192 1.408 0 2.528-.192 3.36-.576.848-.384 1.464-.936 1.848-1.656.384-.736.576-1.616.576-2.64 0-.672-.12-1.24-.36-1.704a2.435 2.435 0 0 0-1.128-1.104c-.496-.256-1.144-.384-1.944-.384h-2.256Z" fill="#E8C662"/><path d="M101.24 9.08h1.152c.56 0 1.104-.008 1.632-.024.528-.016.984-.032 1.368-.048l-.12.48c-.544.016-.968.08-1.272.192a1.276 1.276 0 0 0-.72.576c-.16.272-.32.704-.48 1.296l-3.168 11.904c-.144.576-.208 1.008-.192 1.296.032.288.176.48.432.576.256.096.648.16 1.176.192l-.096.48a15.877 15.877 0 0 0-1.344-.048 62.317 62.317 0 0 0-3.408 0c-.56 0-1.008.016-1.344.048l.096-.48c.56-.032.984-.096 1.272-.192.304-.096.544-.288.72-.576.176-.288.336-.72.48-1.296l3.48-12.936-9.96 15.6h-.528l-1.632-15.792-3.408 12.888c-.144.576-.208 1.032-.192 1.368.016.32.168.552.456.696.288.128.736.208 1.344.24l-.12.48a8.03 8.03 0 0 0-.696-.024c-.272-.016-.56-.024-.864-.024a16.476 16.476 0 0 0-.864-.024c-.4 0-.808.008-1.224.024-.416 0-.76.016-1.032.048l.12-.48c.56-.032.992-.112 1.296-.24a1.59 1.59 0 0 0 .72-.696c.192-.336.36-.792.504-1.368l3.12-11.664c.16-.592.224-1.024.192-1.296-.032-.288-.176-.48-.432-.576-.24-.112-.632-.176-1.176-.192l.12-.48c.256.016.568.032.936.048a28.855 28.855 0 0 0 2.328 0c.384-.016.712-.032.984-.048l1.32 14.232 9.024-14.16Zm8.676 6.76c-.427 0-.84.173-1.24.52-.387.333-.747.793-1.08 1.38a12.44 12.44 0 0 0-.86 1.94c-.24.72-.427 1.467-.56 2.24-.133.773-.2 1.513-.2 2.22 0 .6.093 1.04.28 1.32.2.28.487.42.86.42.427 0 .833-.167 1.22-.5.4-.347.767-.807 1.1-1.38.333-.587.62-1.24.86-1.96s.427-1.46.56-2.22c.133-.773.2-1.52.2-2.24 0-.613-.093-1.053-.28-1.32-.187-.28-.473-.42-.86-.42Zm-5.66 7.3c0-.587.08-1.227.24-1.92.16-.693.4-1.38.72-2.06.32-.68.707-1.3 1.16-1.86a5.552 5.552 0 0 1 1.62-1.34 4.071 4.071 0 0 1 2.04-.52c.827 0 1.487.26 1.98.78.507.507.76 1.293.76 2.36 0 .587-.08 1.227-.24 1.92-.16.693-.4 1.38-.72 2.06-.32.68-.713 1.3-1.18 1.86a5.573 5.573 0 0 1-1.6 1.36 4.2 4.2 0 0 1-2.04.5c-.827 0-1.493-.26-2-.78-.493-.52-.74-1.307-.74-2.36Zm16.726 1.16a2.491 2.491 0 0 0-.12.86c.026.253.186.38.48.38.266 0 .513-.147.74-.44.226-.307.466-.84.72-1.6l.24-.74h.38l-.46 1.46c-.16.533-.374.953-.64 1.26-.267.293-.547.5-.84.62-.294.12-.574.18-.84.18-.8 0-1.22-.38-1.26-1.14-.014-.213 0-.46.04-.74.053-.28.126-.587.22-.92l2.88-10.82c.12-.453.1-.787-.06-1-.16-.213-.567-.32-1.22-.32l.12-.42a9.152 9.152 0 0 0 1.94-.22 8.241 8.241 0 0 0 1.6-.6l-3.92 14.2Zm-4.48 1.34c.333 0 .706-.193 1.12-.58.426-.4.853-.933 1.28-1.6.44-.68.84-1.447 1.2-2.3.373-.867.666-1.76.88-2.68l-.3 2.16c-.52 1.373-1.04 2.473-1.56 3.3-.507.827-1.027 1.427-1.56 1.8-.52.36-1.067.54-1.64.54a2.14 2.14 0 0 1-1.1-.28c-.307-.2-.547-.493-.72-.88-.174-.387-.26-.88-.26-1.48 0-.64.1-1.327.3-2.06.213-.747.513-1.48.9-2.2a9.722 9.722 0 0 1 1.38-1.96 6.994 6.994 0 0 1 1.8-1.44 4.243 4.243 0 0 1 2.08-.54c.306 0 .593.12.86.36.266.227.413.573.44 1.04l-.16.4c-.054-.48-.187-.82-.4-1.02-.214-.213-.454-.32-.72-.32-.507 0-1 .173-1.48.52-.467.347-.894.807-1.28 1.38a10.842 10.842 0 0 0-1.02 1.92c-.294.693-.52 1.407-.68 2.14-.16.72-.24 1.4-.24 2.04 0 .587.073 1.027.22 1.32.146.28.366.42.66.42Zm9.619-4.18c.747-.253 1.42-.5 2.02-.74.614-.253 1.1-.52 1.46-.8a4.29 4.29 0 0 0 1.14-1.4 3.89 3.89 0 0 0 .42-1.8c0-.387-.026-.633-.08-.74-.053-.107-.133-.16-.24-.16-.333 0-.693.147-1.08.44-.386.293-.766.7-1.14 1.22-.373.507-.72 1.087-1.04 1.74a11.558 11.558 0 0 0-.74 2.1 8.92 8.92 0 0 0-.28 2.2c0 .68.127 1.173.38 1.48.254.293.587.44 1 .44.48 0 .987-.147 1.52-.44.534-.293 1.054-.813 1.56-1.56l.32.16c-.253.44-.586.867-1 1.28-.413.413-.88.753-1.4 1.02a3.57 3.57 0 0 1-1.62.38c-.533 0-1-.107-1.4-.32a2.165 2.165 0 0 1-.92-.94c-.213-.427-.32-.947-.32-1.56 0-.573.107-1.213.32-1.92.214-.72.514-1.433.9-2.14.4-.72.874-1.38 1.42-1.98a6.898 6.898 0 0 1 1.82-1.44c.667-.36 1.38-.54 2.14-.54.414 0 .76.113 1.04.34.294.213.44.54.44.98 0 .533-.16 1.033-.48 1.5-.306.453-.72.873-1.24 1.26-.506.373-1.06.707-1.66 1-.6.293-1.186.547-1.76.76-.573.213-1.08.387-1.52.52l.02-.34Zm8.935 2.84c-.107.387-.14.693-.1.92.04.213.186.32.44.32.266 0 .513-.147.74-.44.24-.307.493-.84.76-1.6l.26-.74h.38l-.5 1.46c-.174.507-.387.913-.64 1.22a2.24 2.24 0 0 1-.8.64c-.294.133-.614.2-.96.2-.44 0-.767-.087-.98-.26-.2-.16-.327-.38-.38-.66-.04-.28-.034-.58.02-.9.066-.333.146-.66.24-.98l3.26-10.82c.133-.453.12-.787-.04-1-.16-.213-.567-.32-1.22-.32l.14-.42a9.152 9.152 0 0 0 1.94-.22c.56-.147 1.1-.347 1.62-.6l-4.18 14.2Z" fill="#fff"/><path d="M48.157 39.055c-.55 0-1.03-.099-1.441-.297a2.255 2.255 0 0 1-.935-.858c-.213-.367-.32-.803-.32-1.309 0-.66.14-1.247.419-1.76.279-.513.66-.917 1.144-1.21.484-.3 1.03-.451 1.639-.451.513 0 .957.099 1.33.297.375.19.665.47.87.836.213.367.319.807.319 1.32a3.1 3.1 0 0 1-.022.363 4.753 4.753 0 0 1-.055.341h-5.071l.099-.583h4.609l-.32.22c.074-.462.041-.85-.098-1.166a1.47 1.47 0 0 0-.65-.715c-.285-.169-.63-.253-1.033-.253a2.315 2.315 0 0 0-2.112 1.309c-.205.403-.308.876-.308 1.419 0 .58.165 1.027.495 1.342.337.308.84.462 1.507.462.389 0 .748-.062 1.078-.187.33-.132.601-.312.814-.539l.352.561a2.825 2.825 0 0 1-1.023.638c-.403.147-.832.22-1.287.22Zm4.01-.055 1.627-8.162h.781l-.814 4.059-.352 1.144-.132 1.122L52.914 39h-.748Zm3.211.055c-.498 0-.927-.088-1.287-.264a1.946 1.946 0 0 1-.814-.781c-.183-.345-.278-.759-.286-1.243 0-.528.074-1.012.22-1.452.147-.44.356-.818.627-1.133.279-.323.609-.572.99-.748a3.111 3.111 0 0 1 1.298-.264c.499 0 .935.099 1.31.297.38.19.678.47.89.836.22.367.33.803.33 1.309 0 .499-.08.957-.242 1.375a3.177 3.177 0 0 1-.693 1.089c-.293.308-.638.55-1.034.726a3.306 3.306 0 0 1-1.309.253Zm-.01-.693c.483 0 .912-.114 1.286-.341.374-.235.668-.557.88-.968.22-.41.33-.876.33-1.397 0-.572-.165-1.016-.495-1.331-.33-.315-.799-.473-1.408-.473-.476 0-.905.117-1.287.352a2.525 2.525 0 0 0-.89.968c-.213.403-.32.869-.32 1.397 0 .565.165 1.005.495 1.32.33.315.8.473 1.408.473Zm6.871.693c-.55 0-1.026-.099-1.43-.297a2.27 2.27 0 0 1-.924-.858c-.212-.367-.319-.8-.319-1.298 0-.66.143-1.247.43-1.76.285-.52.681-.928 1.187-1.221.514-.3 1.097-.451 1.75-.451.535 0 .993.099 1.374.297.39.19.69.477.902.858l-.66.385a1.508 1.508 0 0 0-.67-.649c-.28-.14-.617-.209-1.013-.209a2.426 2.426 0 0 0-2.2 1.32c-.212.403-.319.869-.319 1.397 0 .565.165 1.005.495 1.32.338.315.814.473 1.43.473.374 0 .72-.07 1.034-.209.323-.147.587-.356.792-.627l.561.429c-.249.345-.59.616-1.023.814-.432.19-.898.286-1.397.286Zm5.948 0a2.8 2.8 0 0 1-1.309-.297 2.156 2.156 0 0 1-.891-.847c-.213-.367-.319-.803-.319-1.309 0-.491.08-.946.242-1.364.161-.418.389-.781.682-1.089a3.006 3.006 0 0 1 1.034-.726c.403-.169.84-.253 1.309-.253.506 0 .935.092 1.287.275.352.176.623.436.814.781.19.337.286.748.286 1.232 0 .697-.128 1.316-.385 1.859-.257.543-.62.968-1.089 1.276-.47.308-1.023.462-1.661.462Zm.165-.693c.484 0 .913-.114 1.287-.341.381-.235.678-.557.891-.968.22-.41.33-.876.33-1.397 0-.572-.169-1.016-.506-1.331-.33-.315-.796-.473-1.397-.473-.477 0-.906.117-1.287.352a2.496 2.496 0 0 0-.902.968c-.213.403-.319.869-.319 1.397 0 .565.165 1.005.495 1.32.337.315.807.473 1.408.473Zm1.903.638.33-1.661.33-1.166.11-1.21.352-1.738h.781L71.003 39h-.748Zm11.151-5.83c.52 0 .942.103 1.265.308.33.198.557.488.682.869s.132.836.022 1.364L82.715 39h-.781l.66-3.3c.117-.572.062-1.02-.165-1.342-.22-.323-.623-.484-1.21-.484-.58 0-1.067.161-1.463.484-.389.323-.649.807-.781 1.452L78.337 39h-.781l.66-3.3c.117-.572.062-1.02-.165-1.342-.227-.323-.63-.484-1.21-.484-.594 0-1.085.169-1.474.506-.389.337-.653.843-.792 1.518L73.959 39h-.781l1.144-5.775h.748l-.33 1.661-.165-.286c.279-.499.63-.862 1.056-1.089a3.01 3.01 0 0 1 1.441-.341c.403 0 .748.07 1.034.209.293.132.52.33.682.594.169.257.26.565.275.924l-.407-.088c.286-.55.664-.96 1.133-1.232a3.21 3.21 0 0 1 1.617-.407Z" fill="#E8C662"/><path d="M90.583 39.066a4.995 4.995 0 0 1-1.65-.275c-.52-.19-.924-.433-1.21-.726l.32-.627c.27.264.633.488 1.088.671.462.176.946.264 1.452.264.484 0 .876-.059 1.177-.176.308-.125.532-.29.671-.495.147-.205.22-.433.22-.682 0-.3-.088-.543-.264-.726a1.684 1.684 0 0 0-.67-.429 6.881 6.881 0 0 0-.925-.286c-.337-.08-.675-.165-1.012-.253a4.606 4.606 0 0 1-.935-.374 2.013 2.013 0 0 1-.682-.605c-.169-.257-.253-.59-.253-1.001 0-.381.1-.73.297-1.045.205-.323.517-.58.935-.77.418-.198.953-.297 1.606-.297.433 0 .862.062 1.287.187.425.117.792.282 1.1.495l-.275.649a3.623 3.623 0 0 0-1.056-.484 3.95 3.95 0 0 0-1.067-.154c-.462 0-.843.062-1.144.187-.3.125-.524.293-.67.506-.14.205-.21.44-.21.704 0 .3.084.543.253.726.176.183.403.326.682.429.286.103.598.194.935.275.337.08.671.169 1.001.264.337.095.645.22.924.374.286.147.513.345.682.594.176.25.264.576.264.979 0 .374-.103.722-.308 1.045-.205.315-.52.572-.946.77-.418.19-.957.286-1.617.286Zm6.933-.011c-.602 0-1.13-.125-1.584-.374a2.81 2.81 0 0 1-1.067-1.045 3.017 3.017 0 0 1-.385-1.529c0-.572.12-1.078.363-1.518.249-.44.586-.785 1.012-1.034a2.792 2.792 0 0 1 1.452-.385c.542 0 1.023.125 1.44.374.426.242.76.587 1.002 1.034.242.44.363.95.363 1.529a.78.78 0 0 1-.011.121v.121h-5.027v-.583h4.609l-.308.231c0-.418-.092-.788-.275-1.111a1.935 1.935 0 0 0-.726-.77 2.046 2.046 0 0 0-1.067-.275c-.396 0-.752.092-1.067.275-.316.183-.561.44-.737.77a2.37 2.37 0 0 0-.264 1.133v.121c0 .44.095.829.286 1.166.198.33.469.59.814.781.352.183.751.275 1.199.275.352 0 .678-.062.979-.187.308-.125.572-.315.792-.572l.44.506c-.257.308-.58.543-.968.704a3.215 3.215 0 0 1-1.265.242ZM101.7 39v-5.775h.748v1.573l-.077-.275c.162-.44.433-.774.814-1.001.382-.235.855-.352 1.419-.352v.759h-.088a.357.357 0 0 0-.088-.011c-.608 0-1.085.187-1.43.561-.344.367-.517.891-.517 1.573V39h-.781Zm6.061 0-2.563-5.775h.814l2.354 5.357h-.385l2.387-5.357h.77L108.565 39h-.803Zm4.477 0v-5.775h.781V39h-.781Zm.396-7.051a.554.554 0 0 1-.407-.165.54.54 0 0 1-.165-.396c0-.154.055-.282.165-.385a.554.554 0 0 1 .407-.165c.162 0 .297.051.407.154.11.103.165.231.165.385a.553.553 0 0 1-.165.407.529.529 0 0 1-.407.165Zm4.956 7.106a3.15 3.15 0 0 1-1.54-.374 2.837 2.837 0 0 1-1.056-1.045 3.023 3.023 0 0 1-.385-1.529c0-.58.129-1.089.385-1.529.257-.44.609-.785 1.056-1.034a3.15 3.15 0 0 1 1.54-.374c.492 0 .935.095 1.331.286.396.19.708.477.935.858l-.583.396a1.828 1.828 0 0 0-.737-.649 2.2 2.2 0 0 0-.957-.209c-.41 0-.781.095-1.111.286-.33.183-.59.444-.781.781-.19.337-.286.733-.286 1.188 0 .455.096.85.286 1.188.191.337.451.601.781.792.33.183.701.275 1.111.275a2.2 2.2 0 0 0 .957-.209c.294-.14.539-.352.737-.638l.583.396c-.227.374-.539.66-.935.858-.396.19-.839.286-1.331.286Zm6.157 0c-.601 0-1.129-.125-1.584-.374a2.81 2.81 0 0 1-1.067-1.045c-.257-.447-.385-.957-.385-1.529s.121-1.078.363-1.518a2.74 2.74 0 0 1 1.012-1.034 2.793 2.793 0 0 1 1.452-.385c.543 0 1.023.125 1.441.374.425.242.759.587 1.001 1.034.242.44.363.95.363 1.529a.78.78 0 0 1-.011.121v.121h-5.027v-.583h4.609l-.308.231c0-.418-.092-.788-.275-1.111a1.935 1.935 0 0 0-.726-.77 2.047 2.047 0 0 0-1.067-.275c-.396 0-.752.092-1.067.275-.315.183-.561.44-.737.77a2.37 2.37 0 0 0-.264 1.133v.121c0 .44.095.829.286 1.166.198.33.469.59.814.781.352.183.752.275 1.199.275.352 0 .678-.062.979-.187.308-.125.572-.315.792-.572l.44.506a2.47 2.47 0 0 1-.968.704 3.214 3.214 0 0 1-1.265.242Z" fill="#fff"/><defs><linearGradient id="a" x1="5" y1="32.461" x2="52.113" y2="32.182" gradientUnits="userSpaceOnUse"><stop stop-color="#B38D2A"/><stop offset=".313" stop-color="#F7EF8A"/><stop offset=".625" stop-color="#D0AA45"/><stop offset="1" stop-color="#E8C662"/></linearGradient><linearGradient id="b" x1="5" y1="32.461" x2="52.113" y2="32.182" gradientUnits="userSpaceOnUse"><stop stop-color="#B38D2A"/><stop offset=".313" stop-color="#F7EF8A"/><stop offset=".625" stop-color="#D0AA45"/><stop offset="1" stop-color="#E8C662"/></linearGradient></defs></svg>