<svg width="123" height="147" fill="none" xmlns="http://www.w3.org/2000/svg"><path d="M103.497 24.828h-1.43V6.211a6.219 6.219 0 0 0-2.046-4.608A6.218 6.218 0 0 0 95.229.032c-.988.1-23.14 2.605-34.168 24.796H18.625C9 24.828 0 34.954 0 43.454v84.871c0 10.27 8.355 18.625 18.625 18.625h84.871c10.27 0 18.626-8.356 18.626-18.625V43.454c0-10.27-8.356-18.626-18.625-18.626Z" fill="#F7EF8A"/><path d="M103.497 146.95c10.269 0 18.625-8.355 18.625-18.625V43.454c0-10.27-8.356-18.625-18.625-18.625h-1.43V6.21a6.203 6.203 0 0 0-2.047-4.608 6.205 6.205 0 0 0-4.79-1.57c-.99.1-23.14 2.604-34.17 24.796V146.95h42.437Z" fill="#E8C662"/><path d="M55.656 100.235v5.204H38.423v-5.204h17.233ZM40.602 73.062v32.377H33.93V73.062h6.67ZM53.41 86.25v5.07H38.423v-5.07H53.41Zm2.224-13.187v5.226H38.423v-5.226h17.21Zm30.264 0v32.377h-6.671L66.219 83.736v21.703h-6.671V73.062h6.67L79.25 94.787V73.062h6.649Z" fill="#1A1A1A"/></svg>