<svg width="152" height="222" fill="none" xmlns="http://www.w3.org/2000/svg"><path d="M122.267 142.101c-11.44-11.412-30.05-11.412-41.487 0l-2.656 2.649-2.655-2.649c-11.437-11.413-30.048-11.413-41.485 0-11.205 11.18-11.278 28.902-.169 41.224 10.132 11.234 40.013 35.505 41.281 36.532a4.624 4.624 0 0 0 2.926 1.038l.1-.001c1.066.049 2.138-.315 3.027-1.037 1.268-1.027 31.152-25.298 41.287-36.534 11.107-12.32 11.034-30.042-.169-41.222Z" fill="#F7EF8A"/><path opacity=".5" d="M145.153 57.892c-3.407-9.18-13.681-13.973-22.903-10.685l-2.142.762-.79-2.13c-3.406-9.18-13.681-13.974-22.903-10.686-9.035 3.221-13.591 12.882-10.599 22.474 2.73 8.746 13.042 29.7 13.48 30.587.285.58.762 1.047 1.351 1.32l.056.026c.575.301 1.26.378 1.935.213.962-.234 23.645-5.794 32.103-9.321 9.272-3.869 13.748-13.567 10.412-22.56ZM58.152 61.104c-8.56-4.754-19.481-1.71-24.345 6.787l-1.13 1.972-1.987-1.103c-8.559-4.756-19.48-1.712-24.345 6.786-4.765 8.324-1.94 18.625 6.573 23.962 7.764 4.866 29.228 14.069 30.138 14.458a2.84 2.84 0 0 0 1.885.124l.058-.017a2.753 2.753 0 0 0 1.609-1.097c.577-.804 14.186-19.784 18.315-27.966 4.524-8.97 1.613-19.247-6.771-23.906Z" fill="#F7EF8A"/><path opacity=".3" d="M69.823 3.715c-5.007-2.78-11.395-1-14.24 3.97l-.66 1.154-1.163-.646c-5.006-2.782-11.394-1-14.239 3.97-2.787 4.868-1.134 10.893 3.845 14.015 4.541 2.845 17.095 8.229 17.627 8.456.347.15.737.175 1.103.073l.034-.01c.37-.086.704-.312.94-.642.338-.47 8.298-11.572 10.713-16.357 2.646-5.247.943-11.258-3.96-13.983Z" fill="#F7EF8A"/></svg>