<svg width="63" height="40" fill="none" xmlns="http://www.w3.org/2000/svg"><g clip-path="url(#a)" fill-rule="evenodd" clip-rule="evenodd"><path d="m11.292 19.112.226-1.357c1.806-.453 4.29-.679 4.967.904.226.679-.677 4.523-.677 5.654h-1.58v-.679c-.452.226-1.13 1.131-2.485.679-2.032-.453-1.806-3.392.226-4.07.904-.453 2.033-.453 3.161-.453 0-1.583-2.032-1.13-3.612-.904l-.226.226Zm5.419 3.844c.677.226 3.387.678 3.161-.678-.226-.679-2.032-.679-2.484-1.81-.677-1.13 0-2.26.904-2.713.903-.453 2.483-.226 3.612-.226l-.226 1.357c-.903 0-2.032-.453-2.483.452-.226 1.13 3.387.904 2.258 3.844-.452.905-.904 1.13-2.032 1.357-1.13.226-1.807 0-2.936 0v-1.357l.226-.226Zm-7.225 1.583H7.679l.678-3.392c.225-.905.451-2.714.451-3.618l-2.935 7.01h-1.58l-.452-6.784c-.226.452-1.13 5.653-1.355 6.784H.906c.451-2.714 1.354-5.654 1.58-8.367.677-.226 2.258 0 2.935 0v5.427c.452-.226.903-2.035 1.355-2.713.452-.905.903-2.036 1.129-2.714h3.161c-.451 2.713-1.355 5.653-1.355 8.593l-.225-.226Zm21.224 9.724c.226-.452.678-.452.903-.905h-1.806c-.226 0-.677-.678-.903-.904h2.935c.678 0 .678 0 .903-.453.226-.452.452-.452.678-.904h-5.645l-.452-.905h7c.226-.452.677-.678.677-1.356h-8.354l-.452-.905h9.484l.451-1.357H25.743c-.226-.226-.452-.678-.452-.904h11.29l.451-1.357h-2.935v.226c-.451.226-1.355 0-2.032 0 .226-2.261.903-4.297 1.129-7.01H35v.904c.678-.226.226-.904 2.032-.904l-.677 1.809c-1.129 0-1.355.226-1.58 1.357h2.032l.225-.453c.226-1.13.226-1.357.678-2.261v-.679H25.517v.453h1.129c0 1.583-.226 1.583-.677 1.583h-.678l-.226 1.583h1.355c1.13-4.523 4.968-3.392 5.87-2.035.227.678.452 1.582.227 2.26-.226.905 0 .68-4.29.68-.226.904.677 1.356 1.354 1.582 1.13.226 1.807-.226 2.71-.452l-.226 1.583c-.903.452-2.484.452-3.613.226-1.129-.452-1.58-1.13-2.032-2.261v-.453h-1.355a1.444 1.444 0 0 0 0 1.357h1.13l-.452 1.357c-.678.452-2.032.226-2.484-.226-.677-.679.226-4.297.452-5.427.225-.679.225-2.036.451-2.714h1.355c.452 0 .226 0 .226.226h11.741c0-.452-.226-.904-.226-1.357H25.743c0-.452 0-.904.451-.904h10.838l-.451-1.357h-9.935l.451-.905h9.032l-.677-1.357h-7.903c0-.226.452-.904.678-1.13h6.548c-.226-.452-.678-.905-.904-1.357H29.13c.226-.452.451-.678.677-.905h2.935c-.451-.678-1.129-1.13-1.354-1.583-.226 0-1.58-1.356-2.033-1.356-2.032-1.357-3.612-2.036-5.87-2.714C17.84.342 11.743 1.247 7.228 5.091c-2.484 2.035-4.065 3.844-5.645 6.784-.452.905-.678 1.583-1.13 2.488C-.9 17.98-.674 22.73.454 26.348c.227.452.227.905.452 1.357.226.678 1.355 2.714 1.807 3.392 1.355 1.81 2.483 3.166 4.29 4.523 2.032 1.583 3.387 2.035 5.645 3.166.451.226.903.226 1.354.452 4.065 1.13 9.484.678 13.097-1.357.451-.226.677-.452 1.129-.678.451-.226.677-.453 1.128-.679.678-.452 1.355-1.13 2.033-1.583l.225-.226-.903-.452Z" fill="#E63D24"/><path d="M61.644 23.408c.452.453-.226 1.357-.903 1.131l-.226-.226v-.905c-.226.226-.226.679-.226.453 0-1.357 1.355-1.131 1.355-.453Zm-17.838 15.83h-.677c-1.129 0-2.258 0-3.161-.226-2.032-.452-4.742-1.357-6.322-2.488-.452-.226-.678-.452-1.13-.678-.451-.452-1.58-1.13-2.031-1.583.225-.452.677-.452.903-.905H29.58c-.226 0-.677-.678-.903-.904h2.935c.678 0 .678 0 .904-.453.225-.452.451-.452.677-.904h-5.645l-.451-.905h7c.225-.452.677-.678.677-1.356H26.42l-.451-.905h9.483l.452-1.357H25.517c-.226-.226-.452-.678-.452-.904h11.29l.452-1.357H33.87v.226l.226-1.583.226.226h2.71c.677 1.357 3.16 2.035 4.967 1.357 0-.905.226-1.13.452-1.81-1.13.227-1.807.68-2.936 0-.677-.451-1.129-1.356-.903-2.487.452-1.809 1.355-2.487 2.935-2.487.678 0 .904.226 1.581.452l.226-1.583c-.903-.678-3.387-.904-4.968.452-.677.453-.677.679-1.129 1.131v-.678H25.065l.226-1.131h11.741c0-.452-.225-.905-.225-1.357H25.29c0-.452 0-.904.452-.904H36.58l-.452-1.357h-9.935l.452-.905h9.032L35 10.518h-7.902c0-.226.451-.904.677-1.13h6.548c-.226-.453-.677-.905-.903-1.357h-4.742c.226-.452.452-.679.677-.905h2.936c-.452-.678-1.13-1.13-1.355-1.583l2.032-1.583c.452-.226.678-.452 1.13-.678 1.128-.678 2.257-1.357 3.612-1.81C39.968.569 43.129.117 45.387.343c4.064.452 8.354 2.035 11.29 4.75 1.58 1.582 2.935 2.939 4.064 4.974 1.806 2.94 2.71 6.106 2.71 9.724 0 3.392-.452 4.975-1.355 7.463-.226.678-1.355 2.713-1.807 3.392-1.129 1.809-2.71 3.392-4.29 4.522-2.032 1.583-3.387 2.262-5.87 3.166l-2.033.679h-.677c-.903.226-1.806.226-2.71.226v-.226l-.903.226Zm4.29-15.604v.905H46.29v-.678c-.451.226-.451.452-1.129.678-3.613.904-4.064-3.844.226-4.297h1.129l.452-.226c.451-1.583-2.484-.904-3.387-.904.225-1.357 0-1.81 3.16-1.81 3.613.227 1.581 4.297 1.581 6.106l-.226.226Zm.678.905c.451-2.261 1.129-4.523 1.355-7.01h1.806v.904c.451-.226.677-1.13 2.032-.904-.226.678-.451.904-.677 1.809-1.58 0-1.58.452-2.032 1.809-.226 1.13-.452 2.035-.452 3.166h-2.032v.226Zm9.483-6.106c.226-.452.452-1.809.452-2.487h2.032c-.452 2.261-1.355 6.332-1.58 8.593h-1.807v-.678l-.677.452c-1.58.904-3.613 0-3.613-2.488 0-3.618 2.935-4.749 4.516-3.844l.677.678v-.226Z" fill="#EF7F1A"/><path d="M9.26 24.313c.225-2.714.903-5.88 1.354-8.593h-3.16c-.227.904-.678 2.035-1.13 2.713-.226.453-.903 2.262-1.354 2.714V15.72H2.034c-.451 2.94-1.129 5.653-1.58 8.367h1.58c0-1.131.903-6.332 1.355-6.785l.452 6.785h1.58l2.935-7.01c0 .678-.451 2.713-.451 3.618l-.678 3.392h1.807l.226.226Zm45.61-3.166c0-2.488 2.935-3.166 2.935-.905 0 2.94-2.935 3.392-2.935 1.131v-.226Zm3.387-2.94-.677-.678c-1.581-.905-4.516 0-4.516 3.844 0 2.487 2.032 3.392 3.612 2.487l.678-.452v.679h1.806c.226-2.262 1.13-6.106 1.58-8.594h-2.032c0 .679-.225 2.036-.451 2.488v.226Z" fill="#FEFCFD"/><path d="M14.227 21.147c.226.678-.226 1.357-.452 1.583-1.354.904-2.71-.679-1.354-1.357.451-.226 1.129-.226 1.806-.226Zm-3.161-2.035c1.355-.226 3.613-.679 3.613.904-1.13 0-2.258 0-3.162.453-2.032.904-2.032 3.618-.225 4.07 1.354.226 2.032-.452 2.483-.679v.679h1.58c0-1.13.904-4.975.678-5.654-.677-1.583-3.16-1.356-4.967-.904l-.226 1.357.226-.226Zm35.45 2.261c0 .905-.678 2.261-2.033 1.81-.677-.227-.903-2.036 2.033-1.81Zm-.226 2.487c.226.227 0 .227 0 .679h1.58v-.905c0-1.809 2.033-5.88-1.58-6.105-2.936-.227-2.936.452-3.161 1.809.903 0 3.838-.905 3.387.904l-.452.226h-1.129c-4.29.227-3.613 5.202-.226 4.297.678-.226.678-.452 1.13-.678l.45-.227Zm-18.967-3.844c0-1.583 2.484-1.809 2.484 0-.678.226-1.807 0-2.484 0Zm-2.032.453v1.356c.451 1.131.677 1.81 2.032 2.262.903.226 2.71.226 3.613-.227l.226-1.582c-.904.226-1.581.678-2.71.452-.677 0-1.58-.679-1.355-1.583 4.29 0 4.064.226 4.29-.678.226-.679.226-1.584-.226-2.262-.903-1.357-4.741-2.488-5.87 2.035v.226Z" fill="#FEFCFD"/><path d="M37.032 17.755c-.451.904-.451 1.13-.677 2.261v1.357l.451 1.13c.678 1.358 3.162 2.036 4.968 1.358 0-.905.226-1.131.451-1.81-1.129.227-1.806.679-2.935 0-.677-.452-1.129-1.356-.903-2.487.452-1.81 1.355-2.488 2.935-2.488.678 0 .903.226 1.58.453l.227-1.583c-.904-.679-3.387-.905-4.968.452-.677.452-.677.678-1.129 1.13v.227ZM16.485 22.73v1.357c1.129.226 1.806.226 2.935 0 1.13-.226 1.58-.453 2.032-1.357 1.13-2.94-2.483-2.714-2.258-3.845.452-.904 1.581-.452 2.484-.452l.226-1.357c-1.129 0-2.71-.226-3.613.226-.677.453-1.355 1.81-.903 2.714.452.905 2.258.905 2.484 1.81.226 1.356-2.484.678-3.161.678l-.226.226Zm7.451-1.357.226-.905.226-1.582h.677c.452 0 .452 0 .677-1.584h-1.129v-.452l.226-1.13c0-.227.226 0-.226-.227H23.26c-.226.679-.226 2.036-.452 2.714-.226 1.357-1.129 4.749-.451 5.427.451.453 2.032.679 2.483.227l.452-1.357h-1.13c-.225-.453-.225-.679 0-1.357l-.225.226Zm9.483 2.94.226-1.583.226-1.13.226-1.132c.226-.904.677-1.356 1.58-1.356l.678-1.81c-1.807 0-1.355.679-2.032.905v-.905h-1.807c-.225 2.488-.903 4.75-1.129 7.01.452 0 1.58.227 2.032 0Zm15.129 0h2.032c.226-1.13.451-2.035.451-3.166.226-1.357.452-1.81 2.032-1.81 0-1.13.452-1.13.678-1.808-1.355 0-1.58.678-2.032.904v-.904h-1.807c-.225 2.261-.903 4.749-1.354 7.01v-.226Z" fill="#FEFCFD"/><path d="M54.87 21.147c0 2.487 2.935 2.035 2.935-1.13 0-2.036-2.935-1.584-2.935.904v.226Z" fill="#EF7F1A"/><path d="M14.227 21.147c-.678 0-1.355 0-1.806.226-1.355.678 0 2.261 1.354 1.357.226-.226.678-.905.452-1.583Z" fill="#E63D24"/><path d="M46.516 21.373c-2.935-.226-2.71 1.357-2.032 1.81 1.129.451 2.032-.68 2.032-1.81Z" fill="#EF7F1A"/><path d="m33.645 22.73.226.226h2.71l-.452-1.13h-2.258l-.226 1.13v-.226Zm-6.322-2.714c.678 0 1.807.226 2.484 0 0-1.809-2.258-1.583-2.484 0Z" fill="#E63D24"/><path d="m34.097 20.469-.226 1.13h2.484v-1.357l-.226.453-2.032-.226Zm-10.16.904h1.354v.452-1.356h-1.355l-.226.904h.226Z" fill="#ED7B1B"/><path d="M60.74 24.539c-.225-.226.226 0-.225-.226h.226l-.226-.905h.903c0 .226 0 .226.226 0 0-.678-1.355-.904-1.355.452.226.227 0-.226.226-.452v.905l.226.226Z" fill="#F9BD84"/><path d="M61.193 23.408c0 .226 0 .453-.226.453s-.226 0-.226-.453h.452Zm-.452.905v-.452c.452 0 .226 0 .452.226 0 .226.225.226.225.452h-.677c.677.226 1.355-.678.903-1.13v.452c0 .226 0 .226-.226.452-.451-.452 0-.226 0-.905h-.903l.226.905Z" fill="#FDE6CD"/><path d="M60.74 24.087h-.225c.452.226 0 0 .226.226h.677s0-.226-.225-.452c-.226-.227 0-.227-.452-.227v.453Z" fill="#F0811A"/><path d="M46.29 23.634v.679h1.806v-.905c-.225.226-.225.453 0 .905h-1.58v-.678h-.226Z" fill="#FBCA9A"/><path d="M61.644 23.408c-.226 0-.226.226-.226 0 0 .679-.226.453 0 .905 0-.226.226 0 .226-.452v-.453Z" fill="#F0811A"/><path d="M61.192 23.408h-.451c0 .226 0 .453.226.453.225 0 .225-.227.225-.453Z" fill="#F0831F"/></g><defs><clipPath id="a"><path fill="#fff" d="M0 0h63v40H0z"/></clipPath></defs></svg>