<svg width="80" height="40" fill="none" xmlns="http://www.w3.org/2000/svg"><g clip-path="url(#a)"><path d="M-4.396-2.206h88.792V42.24H-4.396V-2.206Z" fill="#DF212F"/><path d="M10.848 3.369c.504-.505.996-1.023 1.513-1.514.54.502 1.07 1.015 1.613 1.514-.544.497-1.072 1.012-1.611 1.513-.52-.489-1.009-1.01-1.515-1.513ZM9.288 5.765c.873-.231 1.775-.325 2.675-.38.003 2.892 0 5.784 0 8.676-.97.005-1.94.007-2.91 0-.328.01-.602-.247-.72-.538-.704-1.667-1.381-3.345-2.098-5.005-.187.133-.376.264-.57.388.657 1.734 1.404 3.434 2.085 5.158-.507-.005-1.014.015-1.52-.013-.523-1.91-1.343-3.717-2.09-5.544C5.609 7.2 7.377 6.224 9.288 5.765ZM12.755 5.383c1.255.07 2.512.26 3.7.686 1.522.508 2.905 1.375 4.115 2.425-.66 1.898-1.493 3.729-2.295 5.57-.436.002-.871.002-1.307 0 .583-1.433 1.172-2.863 1.756-4.296.117-.284.242-.567.331-.86a8.579 8.579 0 0 0-.59-.38c-.674 1.655-1.374 3.299-2.057 4.95-.117.309-.393.593-.74.584-.972.008-1.943 0-2.914.002.006-2.894.001-5.787.001-8.68Z" fill="#F8BD15"/><path d="M7.552 7.917c.959-.425 1.972-.72 3.002-.915.004 1.979-.007 3.958.005 5.937-.375 0-.898.132-1.094-.299C8.81 11.074 8.2 9.486 7.552 7.917ZM14.162 7.004c1.012.19 2.013.47 2.952.895.037.163-.096.33-.14.489-.514 1.27-1.022 2.544-1.533 3.817-.107.272-.196.607-.496.725-.258.042-.521.015-.782.017.008-1.981.005-3.962 0-5.943Z" fill="#DF212F"/><path d="M21.074 8.924c1.081-.94 2.588-1.187 3.974-1.095.983.103 2.045.301 2.776 1.03.62.585.764 1.522.604 2.33a2.416 2.416 0 0 1-1.236 1.659c.585.334 1.162.775 1.386 1.443.24.784.065 1.653-.318 2.362-.5.913-1.451 1.488-2.438 1.724-1.025.238-2.104.12-3.098-.2-.71-.238-1.39-.59-1.953-1.09.22-.318.414-.653.625-.977.11-.175.273-.34.49-.353.366-.058.676.178.984.336.767.422 1.682.612 2.543.415.41-.088.775-.392.885-.806.114-.426.149-.934-.123-1.308-.298-.416-.827-.566-1.309-.615-.596-.036-1.194 0-1.79-.02.013-.606-.004-1.212.008-1.817.655-.012 1.315.041 1.966-.053.377-.049.765-.245.937-.602.178-.454.13-1.081-.312-1.365-.514-.334-1.165-.33-1.748-.234-.53.092-.988.387-1.477.591a.599.599 0 0 1-.743-.221c-.23-.367-.412-.761-.633-1.134ZM32.469 10.79c1.077-.153 2.254.009 3.142.68.746.555 1.213 1.432 1.344 2.35.148 1.041.007 2.164-.571 3.06a3.49 3.49 0 0 1-2.183 1.514c-1.081.235-2.266.104-3.22-.478-.854-.529-1.428-1.45-1.604-2.437-.157-.908-.099-1.882.313-2.717.502-1.087 1.61-1.822 2.779-1.972ZM48.31 10.79c1.126-.161 2.367.03 3.26.784.698.571 1.115 1.433 1.228 2.324.133 1.07-.035 2.223-.672 3.113a3.484 3.484 0 0 1-2.089 1.382c-1.09.242-2.303.105-3.24-.537-.757-.515-1.271-1.346-1.458-2.241-.22-1.062-.126-2.223.42-3.175.535-.913 1.514-1.516 2.55-1.65ZM60.554 11.034c1.002-.126 2.002-.317 3.016-.29a3.058 3.058 0 0 1 2.027.87c.58.58.93 1.386.973 2.208v4.684c-.436-.01-.874.021-1.308-.013-.399-.039-.412-.529-.598-.8-.5.28-.922.715-1.495.846-.785.199-1.676.13-2.363-.328-.565-.385-.815-1.092-.847-1.754-.047-.783.322-1.585.966-2.03.47-.303 1.002-.488 1.531-.66.587-.168 1.2-.195 1.807-.206.019-.434-.22-.886-.651-1.01-.732-.197-1.476.062-2.207.129-.289.041-.57-.13-.696-.388-.19-.39-.169-.837-.155-1.258ZM38.49 15.044c.247-1.355.14-2.739.221-4.107h5.713c-.003 2.524.004 5.046-.004 7.57h-2.2c-.004-1.951 0-3.903-.002-5.855h-1.603c-.064 1.13-.092 2.27-.33 3.38-.154.713-.412 1.443-.937 1.968-.552.57-1.39.738-2.153.704-.176.004-.38-.108-.376-.306-.024-.465-.003-.932-.01-1.397.343-.029.692-.137.963-.355.41-.432.621-1.02.719-1.602ZM52.74 10.938c2.339-.002 4.678 0 7.017 0v1.606H57.45V18.4h-2.307v-5.855c-.802-.002-1.603.001-2.404-.002v-1.605ZM68.218 11.62c.679-.484 1.522-.676 2.344-.68 1.008-.007 2.016-.001 3.024-.003V18.4H71.48c-.004-.979.007-1.958-.007-2.937-.272.021-.587.05-.757.297-.503.64-.648 1.48-1.08 2.162-.214.34-.628.46-1.005.471-.587.016-1.173.004-1.76.005.54-.902 1.072-1.81 1.62-2.707.19-.322.511-.54.872-.621-.695-.144-1.425-.5-1.736-1.18-.364-.777-.046-1.74.59-2.27Z" fill="#FEFAFA"/><path d="M70.257 12.437c.39-.142.817-.068 1.224-.086l-.001 1.916c-.49-.032-1.09.128-1.47-.278-.469-.412-.357-1.33.247-1.552ZM32.611 12.559c.457-.15 1-.145 1.416.12.492.334.623.975.663 1.533.032.687.033 1.424-.309 2.042-.443.785-1.669.829-2.254.19-.358-.42-.46-.997-.44-1.535.02-.582.008-1.193.267-1.729.127-.283.366-.514.657-.621ZM48.45 12.556c.564-.185 1.299-.126 1.684.38.416.588.406 1.352.395 2.042-.035.623-.168 1.348-.731 1.708-.57.322-1.379.258-1.834-.236-.36-.42-.465-.998-.443-1.537.02-.584.003-1.197.264-1.734.13-.285.37-.518.664-.623Z" fill="#DF212F"/><path d="M6.521 14.75h11.762v1.395H6.52v-1.394Z" fill="#F8BD15"/><path d="M62.212 15.403c.592-.33 1.294-.305 1.95-.335.012.379.115.763.07 1.138-.484.544-1.301.834-1.999.576-.575-.208-.53-1.12-.021-1.38Z" fill="#DF212F"/><path d="M6.549 17.092h3.508v5.953c.406.01.82-.003 1.212-.12.167-.068.291-.21.4-.35.865-1.17 1.338-2.58 2.205-3.75.34-.477.756-.917 1.286-1.176.976-.435 2.062-.488 3.114-.46-.002.712.005 1.424-.002 2.136.01.257-.102.524-.326.659-.339.195-.742.222-1.093.386-.306.128-.554.367-.74.639-.573.79-.788 1.78-1.372 2.563-.196.262-.47.449-.761.589.454.112.885.33 1.228.652.378.38.668.838.94 1.299 1.07 1.905 2.154 3.804 3.22 5.712-1.053.002-2.107 0-3.161.002-.356.009-.735-.096-.97-.38-.233-.232-.322-.557-.487-.834-.829-1.46-1.651-2.925-2.48-4.385-.165-.29-.432-.525-.761-.597-.478-.099-.969-.044-1.452-.057v6.155c-1.076.002-2.15-.003-3.226.002-.085-.028-.311.06-.281-.1-.003-4.846-.001-9.691-.001-14.538Z" fill="#FEFAFA"/><path d="M23.09 20.775c1.335-.143 2.747.057 3.902.78.972.602 1.701 1.569 2.061 2.656.348 1.013.4 2.108.29 3.166a4.355 4.355 0 0 1-.507 1.64 5.128 5.128 0 0 1-2.01 2.255c-1.2.7-2.65.876-4.008.662-1.203-.18-2.355-.76-3.176-1.673-.696-.804-1.177-1.808-1.305-2.872-.17-1.382-.01-2.846.68-4.072.801-1.493 2.425-2.396 4.074-2.542ZM35.265 20.91c.847-.224 1.78-.277 2.607.052 1.05.428 1.776 1.392 2.213 2.413.361.763.466 1.616.51 2.45.07 1.538-.31 3.118-1.197 4.383-.609.872-1.535 1.525-2.58 1.73-.876.172-1.82.097-2.622-.317-.282-.136-.535-.325-.795-.497.002 1.378.005 2.755.001 4.133-1.067.04-2.135.074-3.204.102V20.926c.664.003 1.33-.008 1.994.004.319-.004.665.15.787.463.095.277.147.566.224.848.557-.614 1.257-1.112 2.062-1.33ZM46.082 20.778c1.447-.163 2.996.07 4.211.92 1.084.75 1.778 1.979 2.013 3.267.23 1.284.174 2.645-.301 3.868a4.782 4.782 0 0 1-2.493 2.669c-1.156.522-2.468.625-3.71.43-1.247-.2-2.452-.814-3.25-1.814-.91-1.1-1.281-2.571-1.229-3.984.038-1.384.485-2.811 1.473-3.807.852-.912 2.066-1.408 3.286-1.55ZM65.17 21.125c1.476-.245 2.97-.435 4.468-.387 1.3.054 2.593.711 3.318 1.818.56.813.762 1.825.726 2.803v6.572c-.556-.003-1.113.01-1.669-.007-.287-.01-.616-.088-.776-.352-.17-.295-.246-.63-.36-.948-1.205 1.386-3.306 1.871-4.988 1.15a2.485 2.485 0 0 1-1.319-1.31c-.406-.937-.49-2.034-.167-3.009.393-1.014 1.297-1.767 2.314-2.097.655-.2 1.31-.418 1.992-.5.587-.076 1.18-.089 1.773-.094.06-.646-.36-1.312-1.007-1.442-.716-.138-1.45.006-2.157.127-.459.074-.939.243-1.394.072-.35-.126-.568-.465-.661-.812-.132-.517-.129-1.055-.093-1.584ZM53.34 20.925c1.07.002 2.14 0 3.209 0-.002 1.312.004 2.622-.004 3.933 1.134.017 2.268 0 3.402.009.013-1.314.001-2.628.005-3.942 1.071.002 2.142-.002 3.213.002v10.895c-1.071.006-2.142 0-3.213.003v-4.54c-1.135 0-2.27 0-3.403.002.001 1.51-.005 3.022.003 4.533-1.07.01-2.14 0-3.211.005v-10.9Z" fill="#FEFAFA"/><path d="M23.167 23.243c.613-.158 1.304-.13 1.86.196.453.283.724.786.87 1.288.203.785.217 1.606.155 2.41-.067.736-.259 1.525-.829 2.036-.567.465-1.369.514-2.055.34a1.773 1.773 0 0 1-1.116-.902c-.376-.679-.403-1.484-.373-2.241.011-.788.061-1.619.46-2.318a1.69 1.69 0 0 1 1.028-.809ZM46.22 23.242c.65-.166 1.396-.126 1.96.27.534.411.774 1.09.873 1.739a8.01 8.01 0 0 1-.009 2.309c-.106.641-.355 1.315-.9 1.706-.583.39-1.344.417-2 .224-.524-.155-.918-.594-1.113-1.095-.317-.79-.32-1.663-.296-2.502.041-.706.146-1.457.58-2.037.218-.305.547-.518.905-.614ZM33.397 24.261c.406-.472.936-.87 1.564-.965.53-.09 1.17-.08 1.56.351.584.617.654 1.528.68 2.337.014.998-.039 2.086-.636 2.928-.354.51-1 .734-1.602.687-.583-.018-1.188-.266-1.554-.728-.02-1.537.007-3.073-.012-4.61ZM67.778 27.347c.868-.295 1.791-.345 2.694-.46-.002.558.011 1.118-.005 1.677-.295.17-.49.468-.79.632-.432.245-.937.32-1.426.336-.41-.005-.899-.108-1.113-.502-.3-.6-.01-1.458.64-1.683Z" fill="#DF212F"/></g><defs><clipPath id="a"><path fill="#fff" d="M0 0h80v40H0z"/></clipPath></defs></svg>