<svg width="40" height="40" fill="none" xmlns="http://www.w3.org/2000/svg"><g clip-path="url(#a)"><path d="M38.469 12.05C36.594 10.319 34 7.675 31.887 5.8l-.125-.087a2.389 2.389 0 0 0-.693-.388C25.975 4.375 2.269-.056 1.806 0a.875.875 0 0 0-.362.138L1.325.23A1.394 1.394 0 0 0 1 .756L.969.838v.512C3.638 8.781 14.175 33.125 16.25 38.837c.125.388.363 1.125.806 1.163h.1c.238 0 1.25-1.337 1.25-1.337s18.1-21.95 19.931-24.288c.238-.288.447-.598.625-.925a1.506 1.506 0 0 0-.493-1.4ZM23.05 14.606 30.775 8.2l4.531 4.175-12.256 2.231Zm-3-.418-13.3-10.9 21.519 3.968-8.219 6.931Zm1.2 2.856 13.612-2.194L19.3 33.6l1.95-16.556ZM4.944 4.375 18.938 16.25l-2.025 17.362L4.943 4.375Z" fill="#FF060A"/></g><defs><clipPath id="a"><path fill="#fff" d="M0 0h40v40H0z"/></clipPath></defs></svg>