<svg width="40" height="40" fill="none" xmlns="http://www.w3.org/2000/svg"><path d="M20.186 2.5c2.773 0 5.41.635 7.778 1.772.371.167.745.368 1.115.568l-1.623 1.438-2.434-2.507-4.193 3.677-2.469-2.642-7.71 6.854 4.936 5.382-1.927 1.671 4.87 5.383-1.927 1.67 6.967 7.656 4.123-3.744 3.586 4.012c-.71.535-1.488 1.071-2.333 1.538A17.832 17.832 0 0 1 20.22 37.5c-9.774 0-17.72-7.855-17.72-17.515C2.466 10.39 10.413 2.5 20.186 2.5Zm-3.247 16.415 4.227-3.745 3.788 4.179-4.228 3.744-3.787-4.178Zm3.01 7.22 4.193-3.777 3.822 4.178-4.227 3.745-3.788-4.145Zm-6.018-14.34 4.226-3.745 3.787 4.178-4.227 3.745-3.786-4.179Zm7.742-2.007L24.82 6.98l2.841 3.109-3.145 2.84-2.842-3.141Zm5.615 12.87 3.144-2.808 2.841 3.142-3.145 2.81-2.84-3.144Zm2.772 6.32 3.146-2.81 2.839 3.11-3.145 2.84-2.84-3.14Zm1.286-14.443 2.096-1.873 1.893 2.074-2.096 1.872-1.893-2.073ZM28.64 8.35l2.097-1.905 1.894 2.106-2.098 1.872L28.64 8.35Zm5.377 12.37 2.096-1.872 1.928 2.073-2.13 1.871-1.894-2.072Zm-9.435-4.647 3.145-2.808 2.84 3.108-3.144 2.809-2.84-3.11Z" fill="#006AB3"/></svg>