<svg width="40" height="40" fill="none" xmlns="http://www.w3.org/2000/svg"><g clip-path="url(#a)"><path d="M0 .34h39.354v19.788c0 5.075-2.712 9.765-7.094 12.297l-12.57 7.26-12.57-7.26A14.193 14.193 0 0 1 0 20.128V.34Z" fill="#FFDD2D"/><path fill-rule="evenodd" clip-rule="evenodd" d="M10.796 10.748v6.155c.835-.951 2.378-1.593 4.126-1.593h1.902v7.156c0 1.902-.514 3.573-1.286 4.485h8.277c-.77-.912-1.285-2.583-1.285-4.485V15.31h1.902c1.748 0 3.278.643 4.126 1.594v-6.155H10.796Z" fill="#333"/></g><defs><clipPath id="a"><path fill="#fff" d="M0 0h40v40H0z"/></clipPath></defs></svg>