<svg width="40" height="40" fill="none" xmlns="http://www.w3.org/2000/svg"><g clip-path="url(#a)"><path d="M35.558 7.904c.939 1.213 1.721 2.543 2.386 3.951l-18.072 13.34-7.589-4.773V14.71l7.55 4.733 15.725-11.54Z" fill="#21A038"/><path d="M4.577 20.026c0-.274 0-.508.04-.782L.04 19.009c0 .313-.04.665-.04.978 0 5.477 2.23 10.444 5.829 14.044l3.247-3.247a15.036 15.036 0 0 1-4.499-10.758Z" fill="url(#b)"/><path d="M19.832 4.772c.274 0 .509 0 .783.04L20.85.233c-.314 0-.666-.039-.979-.039-5.476 0-10.444 2.23-14.043 5.829L9.075 9.27a15.104 15.104 0 0 1 10.757-4.499Z" fill="url(#c)"/><path d="M19.832 35.287c-.273 0-.508 0-.782-.039l-.235 4.577c.313 0 .665.04.978.04 5.477 0 10.445-2.23 14.044-5.83L30.59 30.79c-2.738 2.816-6.533 4.498-10.758 4.498Z" fill="url(#d)"/><path d="M28.439 7.437 32.31 4.58C28.908 1.843 24.566.16 19.832.16v4.576c3.208.04 6.181 1.017 8.607 2.7Z" fill="url(#e)"/><path d="M39.703 20.026c0-1.212-.117-2.386-.313-3.56l-4.263 3.17v.39c0 4.499-1.956 8.528-5.046 11.305l3.09 3.404a19.815 19.815 0 0 0 6.532-14.709Z" fill="#21A038"/><path d="M19.832 35.287a15.156 15.156 0 0 1-11.305-5.046l-3.403 3.09a19.737 19.737 0 0 0 14.709 6.533v-4.577Z" fill="url(#f)"/><path d="M9.623 8.725 6.533 5.32A19.737 19.737 0 0 0 0 20.03h4.577c0-4.46 1.956-8.527 5.046-11.304Z" fill="url(#g)"/></g><defs><linearGradient id="b" x1="5.34" y1="33.5" x2=".668" y2="19.996" gradientUnits="userSpaceOnUse"><stop offset=".144" stop-color="#F2E913"/><stop offset=".304" stop-color="#E7E518"/><stop offset=".582" stop-color="#CADB26"/><stop offset=".891" stop-color="#A3CD39"/></linearGradient><linearGradient id="c" x1="7.114" y1="5.49" x2="18.982" y2=".967" gradientUnits="userSpaceOnUse"><stop offset=".059" stop-color="#0FA8E0"/><stop offset=".538" stop-color="#0099F9"/><stop offset=".923" stop-color="#0291EB"/></linearGradient><linearGradient id="d" x1="18.549" y1="35.978" x2="32.694" y2="32.781" gradientUnits="userSpaceOnUse"><stop offset=".123" stop-color="#A3CD39"/><stop offset=".285" stop-color="#86C339"/><stop offset=".869" stop-color="#21A038"/></linearGradient><linearGradient id="e" x1="18.884" y1="3.088" x2="30.647" y2="6.718" gradientUnits="userSpaceOnUse"><stop offset=".057" stop-color="#0291EB"/><stop offset=".79" stop-color="#0C8ACB"/></linearGradient><linearGradient id="f" x1="6.271" y1="34.085" x2="18.903" y2="38.806" gradientUnits="userSpaceOnUse"><stop offset=".132" stop-color="#F2E913"/><stop offset=".298" stop-color="#EBE716"/><stop offset=".531" stop-color="#D9E01F"/><stop offset=".802" stop-color="#BBD62D"/><stop offset=".983" stop-color="#A3CD39"/></linearGradient><linearGradient id="g" x1="3.479" y1="20.59" x2="8.53" y2="7.45" gradientUnits="userSpaceOnUse"><stop offset=".07" stop-color="#A3CD39"/><stop offset=".26" stop-color="#81C55F"/><stop offset=".922" stop-color="#0FA8E0"/></linearGradient><clipPath id="a"><path fill="#fff" d="M0 0h40v40H0z"/></clipPath></defs></svg>