<svg width="118" height="40" fill="none" xmlns="http://www.w3.org/2000/svg"><path d="M.667 4.013h11c1 0 4-.334 5.333 4.333 1 3 2.333 7.666 4.333 14.666H22c2-7.333 3.666-12.333 4.333-14.666 1.334-4.667 4.667-4.333 6-4.333h10.334v32H32v-19h-.667l-5.666 19h-8l-5.667-19h-1v19H.667M47 4.013h10.666v19h1l7-15.667C67 4.346 70 4.013 70 4.013h10v32H69.333v-19h-.666l-7 15.666c-1.334 3-4.667 3.334-4.667 3.334H47m47.333-9.667v9.667h-10V19.346H117c-1.333 4-6 7-11.333 7" fill="#0F754E"/><path d="M117.667 17.346c1.333-6-2.667-13.333-11.334-13.333H83.667c.666 7 6.666 13.333 13 13.333" fill="url(#a)"/><defs><linearGradient id="a" x1="113.666" y1="-.321" x2="87" y2="-.321" gradientUnits="userSpaceOnUse"><stop stop-color="#1F5CD7"/><stop offset="1" stop-color="#02AEFF"/></linearGradient></defs></svg>