<svg width="63" height="40" fill="none" xmlns="http://www.w3.org/2000/svg"><g clip-path="url(#a)"><path d="M63 37.72c0 1.305-1.046 2.362-2.337 2.362H2.337C1.046 40.082 0 39.025 0 37.72V2.306C0 1.002 1.046-.055 2.337-.055h58.326C61.954-.055 63 1.002 63 2.305V37.72Z" fill="#21246E"/><path d="m23.945 11.567-7.01 16.9H12.36L8.913 14.98c-.212-.832-.394-1.134-1.03-1.488-1.042-.569-2.757-1.103-4.27-1.436l.105-.49h7.361c.939 0 1.783.632 1.995 1.723l1.823 9.781 4.502-11.504h4.546Zm17.921 11.38c.02-4.459-6.105-4.701-6.061-6.696.012-.608.583-1.253 1.834-1.415.62-.084 2.33-.145 4.267.753l.76-3.582c-1.043-.382-2.383-.748-4.048-.748-4.276 0-7.287 2.298-7.312 5.587-.028 2.432 2.148 3.789 3.789 4.599 1.685.828 2.249 1.357 2.243 2.1-.011 1.135-1.345 1.63-2.589 1.653-2.176.034-3.438-.594-4.446-1.069l-.783 3.706c1.01.468 2.879.875 4.813.899 4.545 0 7.519-2.274 7.533-5.788Zm11.294 5.52h4.003l-3.493-16.9h-3.696c-.83 0-1.53.489-1.842 1.238l-6.489 15.661h4.542l.902-2.524h5.551l.522 2.524Zm-4.829-5.988 2.279-6.346 1.31 6.346h-3.589ZM30.13 11.567l-3.58 16.9H22.22l3.58-16.9h4.328Z" fill="#fff"/></g><defs><clipPath id="a"><path fill="#fff" d="M0 0h63v40H0z"/></clipPath></defs></svg>