<svg width="40" height="40" fill="none" xmlns="http://www.w3.org/2000/svg"><g clip-path="url(#a)"><path d="M20 40c11.046 0 20-8.954 20-20S31.046 0 20 0 0 8.954 0 20s8.954 20 20 20Z" fill="#26A17B"/><path fill-rule="evenodd" clip-rule="evenodd" d="M22.402 21.729v-.003c-.137.01-.846.053-2.427.053-1.263 0-2.151-.038-2.464-.053v.004c-4.86-.214-8.487-1.06-8.487-2.072s3.627-1.858 8.487-2.075v3.305c.318.022 1.228.076 2.485.076 1.509 0 2.265-.063 2.407-.075v-3.304c4.85.216 8.468 1.063 8.468 2.073 0 1.012-3.618 1.856-8.468 2.07Zm0-4.488v-2.957h6.768v-4.51H10.744v4.51h6.767v2.956c-5.5.253-9.636 1.343-9.636 2.648 0 1.305 4.136 2.393 9.636 2.647v9.478h4.892v-9.48c5.49-.253 9.617-1.342 9.617-2.645 0-1.304-4.126-2.393-9.618-2.647Z" fill="#fff"/></g><defs><clipPath id="a"><path fill="#fff" d="M0 0h40v40H0z"/></clipPath></defs></svg>