<svg width="123" height="147" fill="none" xmlns="http://www.w3.org/2000/svg"><path d="M103.497 0H18.625C8.355 0 0 8.355 0 18.625v84.872c0 10.27 8.355 18.625 18.625 18.625h1.436v18.617a6.21 6.21 0 0 0 6.837 6.179c.99-.1 23.14-2.605 34.17-24.796h42.429c10.27 0 18.625-8.356 18.625-18.625V18.625C122.122 8.355 113.766 0 103.497 0Z" fill="#F5F5FC"/><path d="M103.497 0h-42.43v122.122h42.43c10.27 0 18.625-8.356 18.625-18.625V18.625C122.122 8.355 113.766 0 103.497 0Z" fill="#DFDFF2"/><path d="M34.298 48.601h12.075c2.475 0 4.602.37 6.381 1.112 1.794.741 3.173 1.838 4.137 3.291.963 1.453 1.445 3.24 1.445 5.36 0 1.733-.297 3.223-.89 4.469a8.37 8.37 0 0 1-2.468 3.09c-1.052.816-2.29 1.468-3.713 1.957l-2.113 1.112H38.656l-.044-5.203h7.805c1.171 0 2.142-.208 2.913-.623.77-.415 1.349-.993 1.735-1.734.4-.742.6-1.601.6-2.58 0-1.037-.193-1.934-.578-2.69-.386-.756-.971-1.335-1.757-1.735-.786-.4-1.771-.6-2.957-.6h-5.404v27.15h-6.671V48.602Zm18.1 32.377-7.382-14.432 7.05-.044 7.47 14.165v.31H52.4ZM81.352 48.6H88v21.392c0 2.49-.534 4.588-1.601 6.293-1.053 1.705-2.513 2.987-4.381 3.847-1.853.86-3.988 1.29-6.404 1.29-2.417 0-4.566-.43-6.449-1.29-1.868-.86-3.335-2.142-4.403-3.847-1.052-1.705-1.578-3.803-1.578-6.293V48.6h6.67v21.392c0 1.453.23 2.639.69 3.558.46.919 1.119 1.593 1.979 2.023.874.43 1.905.645 3.09.645 1.216 0 2.247-.215 3.092-.645.86-.43 1.512-1.104 1.957-2.023.46-.92.689-2.105.689-3.558V48.6Z" fill="#1A1A1A"/></svg>