<svg width="90" height="90" fill="none" xmlns="http://www.w3.org/2000/svg"><g clip-path="url(#a)"><path d="M82.094 38.156h-.607v-7.904a2.638 2.638 0 0 0-2.903-2.623c-.42.043-9.824 1.106-14.506 10.527H40.793a2.637 2.637 0 0 0-2.637 2.637v41.3c0 4.36 3.547 7.907 7.907 7.907h36.03C86.453 90 90 86.453 90 82.093v-36.03c0-4.36-3.547-7.907-7.906-7.907Z" fill="#F7EF8A"/><path d="M82.093 90C86.453 90 90 86.453 90 82.093v-36.03c0-4.36-3.547-7.907-7.907-7.907h-.606v-7.903a2.636 2.636 0 0 0-2.903-2.624c-.42.043-9.824 1.106-14.506 10.527V90h18.015Z" fill="#E8C662"/><path d="M43.937 0H7.907C3.547 0 0 3.547 0 7.907v36.03c0 4.36 3.547 7.907 7.907 7.907h.61v7.904a2.636 2.636 0 0 0 2.902 2.623c.42-.043 9.824-1.106 14.506-10.527h18.012c4.36 0 7.907-3.547 7.907-7.907V7.907c0-4.36-3.547-7.907-7.907-7.907Z" fill="#F5F5FC"/><path d="M43.937 0H25.925v51.844h18.012c4.36 0 7.907-3.547 7.907-7.907V7.907c0-4.36-3.547-7.907-7.907-7.907Z" fill="#DFDFF2"/><path d="M14.56 20.255h5.126c1.051 0 1.954.158 2.71.472.761.315 1.346.78 1.755 1.397.41.617.614 1.376.614 2.275 0 .737-.126 1.37-.378 1.898-.245.522-.594.96-1.047 1.312a5.435 5.435 0 0 1-1.577.83l-.897.473H16.41l-.018-2.21h3.313c.497 0 .91-.087 1.237-.264.327-.176.572-.421.736-.736.17-.315.255-.68.255-1.095 0-.44-.082-.821-.245-1.142a1.656 1.656 0 0 0-.746-.736c-.334-.17-.752-.255-1.256-.255h-2.294V34H14.56V20.255ZM22.244 34l-3.134-6.127 2.993-.018 3.172 6.013V34h-3.03Zm12.291-13.745h2.823v9.082c0 1.057-.226 1.947-.68 2.671a4.193 4.193 0 0 1-1.86 1.633c-.786.365-1.692.548-2.718.548s-1.938-.183-2.738-.548a4.251 4.251 0 0 1-1.869-1.633c-.447-.724-.67-1.614-.67-2.671v-9.082h2.832v9.082c0 .616.098 1.12.293 1.51.195.39.475.676.84.86.371.182.808.273 1.312.273.516 0 .953-.091 1.312-.274.365-.183.642-.469.83-.859.196-.39.294-.894.294-1.51v-9.082ZM61.783 69.791V72h-7.316v-2.209h7.316Zm-6.39-11.536V72H52.56V58.255h2.832Zm5.437 5.598v2.153h-6.363v-2.153h6.363Zm.944-5.598v2.219h-7.307v-2.219h7.307Zm12.848 0V72H71.79l-5.523-9.214V72h-2.832V58.255h2.832l5.532 9.223v-9.223h2.823Z" fill="#1A1A1A"/><path d="m67.192 5.316.815-.815A2.637 2.637 0 1 0 64.278.772l-5.292 5.292a2.637 2.637 0 0 0 0 3.73l5.292 5.291c.515.515 1.19.773 1.865.773a2.637 2.637 0 0 0 1.864-4.501l-.757-.758c9.705.575 17.424 8.652 17.424 18.498a2.637 2.637 0 0 0 5.274 0c0-12.774-10.115-23.23-22.756-23.78ZM30.962 80.154l-5.292-5.292a2.637 2.637 0 0 0-3.73 3.729l.758.757c-9.705-.575-17.425-8.651-17.425-18.498a2.637 2.637 0 0 0-5.273 0c0 12.774 10.115 23.23 22.756 23.78l-.815.816a2.637 2.637 0 0 0 3.729 3.729l5.292-5.292a2.636 2.636 0 0 0 0-3.73Z" fill="#F7EF8A"/></g><defs><clipPath id="a"><path fill="#fff" d="M0 0h90v90H0z"/></clipPath></defs></svg>