<svg width="75" height="75" viewBox="0 0 75 75" fill="none" xmlns="http://www.w3.org/2000/svg">
<path d="M72.9321 51.6824L60.4664 39.2167C58.0412 36.7911 54.1084 36.7911 51.6829 39.2167C49.2573 41.6423 49.2573 45.5746 51.6829 48.0002L53.4658 49.7831C30.6058 48.4292 12.4219 29.4051 12.4219 6.21094C12.4219 2.78084 9.64103 0 6.21094 0C2.78084 0 0 2.78084 0 6.21094C0 36.3021 23.8264 60.9297 53.6037 62.2278L51.6829 64.1486C49.2573 66.5742 49.2573 70.5066 51.6829 72.9321C52.8957 74.1449 54.4852 74.7511 56.0744 74.7511C57.6636 74.7511 59.2536 74.1449 60.466 72.9317L72.9317 60.466C75.3577 58.0404 75.3577 54.108 72.9321 51.6824Z" fill="#F7EF8A"/>
</svg>
