<svg width="75" height="75" viewBox="0 0 75 75" fill="none" xmlns="http://www.w3.org/2000/svg">
<path d="M21.1476 12.5233L23.0685 10.6024C25.494 8.17687 25.494 4.24451 23.0685 1.81894C20.6433 -0.606227 16.7105 -0.606641 14.285 1.81894L1.81918 14.2851C-0.606395 16.7107 -0.606395 20.643 1.81918 23.0686L14.285 35.5344C15.4977 36.7472 17.0873 37.3538 18.6765 37.3538C20.2657 37.3538 21.8557 36.7476 23.0681 35.5344C25.4936 33.1088 25.4936 29.1765 23.0681 26.7509L21.2851 24.9679C44.1451 26.3223 62.329 45.346 62.329 68.5401C62.329 71.9702 65.1099 74.7511 68.54 74.7511C71.9701 74.7511 74.7509 71.9702 74.7509 68.5401C74.7509 38.449 50.9245 13.8214 21.1476 12.5233Z" fill="#F7EF8A"/>
</svg>
