<svg width="123" height="147" viewBox="0 0 123 147" fill="none" xmlns="http://www.w3.org/2000/svg">
<path d="M103.497 24.8283H102.067V6.21078C102.067 5.34229 101.885 4.48345 101.533 3.68974C101.18 2.89602 100.665 2.18507 100.021 1.60278C99.3761 1.02049 98.6168 0.579807 97.7916 0.309197C96.9663 0.0385862 96.0935 -0.0559408 95.2294 0.0317187C94.2406 0.131922 72.0891 2.637 61.0606 24.8283H18.6249C9 24.8283 0 34.9536 0 43.4536V128.325C0 138.595 8.35536 146.95 18.6249 146.95H103.496C113.766 146.95 122.122 138.594 122.122 128.325V43.4536C122.122 33.1836 113.766 24.8283 103.497 24.8283Z" fill="#F7EF8A"/>
<path d="M103.497 146.95C113.766 146.95 122.122 138.595 122.122 128.325V43.4537C122.122 33.1837 113.766 24.8288 103.497 24.8288H102.067V6.21126C102.067 5.34277 101.885 4.48395 101.532 3.69023C101.18 2.89651 100.665 2.18555 100.02 1.60326C99.3761 1.02097 98.6168 0.580301 97.7915 0.30969C96.9663 0.0390799 96.0935 -0.0554535 95.2294 0.0322061C94.2406 0.132409 72.0891 2.63749 61.0605 24.8288V146.95H103.497Z" fill="#E8C662"/>
<path d="M55.6561 100.235V105.439H38.4226V100.235H55.6561ZM40.6018 73.0621V105.439H33.9308V73.0621H40.6018ZM53.4101 86.2485V91.3184H38.4226V86.2485H53.4101ZM55.6338 73.0621V78.2877H38.4226V73.0621H55.6338ZM85.898 73.0621V105.439H79.2269L66.2185 83.7357V105.439H59.5475V73.0621H66.2185L79.2492 94.7873V73.0621H85.898Z" fill="#1A1A1A"/>
</svg>
