<svg width="152" height="222" viewBox="0 0 152 222" fill="none" xmlns="http://www.w3.org/2000/svg">
<path d="M122.267 142.101C110.827 130.689 92.2171 130.689 80.7804 142.101L78.124 144.75L75.4692 142.101C64.0324 130.688 45.4205 130.688 33.9838 142.101C22.7792 153.281 22.7065 171.003 33.8151 183.325C43.9468 194.559 73.8283 218.83 75.0961 219.857C75.9223 220.53 76.9557 220.896 78.0219 220.895L78.1223 220.894C79.1876 220.943 80.2602 220.579 81.1488 219.857C82.4166 218.83 112.301 194.559 122.436 183.323C133.543 171.003 133.47 153.281 122.267 142.101Z" fill="#F7EF8A"/>
<path opacity="0.5" d="M145.153 57.8923C141.746 48.7123 131.472 43.9189 122.25 47.2066L120.108 47.9693L119.318 45.8386C115.912 36.6586 105.637 31.8648 96.4148 35.1533C87.38 38.3742 82.8237 48.0353 85.8163 57.6269C88.5468 66.3729 98.8582 87.3266 99.2963 88.2142C99.5811 88.7943 100.058 89.2607 100.647 89.5348L100.703 89.5598C101.278 89.8613 101.963 89.9383 102.638 89.7732C103.6 89.5387 126.283 83.9788 134.741 80.4519C144.013 76.5833 148.489 66.8846 145.153 57.8923Z" fill="#F7EF8A"/>
<path opacity="0.5" d="M58.152 61.1042C49.5917 56.3498 38.6708 59.3942 33.8066 67.8908L32.6765 69.8634L30.6898 68.7597C22.1312 64.0039 11.2093 67.0485 6.3453 75.5461C1.57976 83.8702 4.40535 94.1714 12.9184 99.5083C20.6822 104.374 42.1456 113.577 43.0558 113.966C43.6495 114.221 44.3153 114.265 44.9408 114.09L44.9994 114.073C45.6326 113.927 46.203 113.54 46.6077 112.976C47.1854 112.172 60.794 93.1918 64.9227 85.0102C69.4467 76.0402 66.5356 65.7628 58.152 61.1042Z" fill="#F7EF8A"/>
<path opacity="0.3" d="M69.8228 3.71542C64.8159 0.934621 58.4284 2.71526 55.5833 7.68489L54.9223 8.83865L53.7603 8.19306C48.7544 5.41144 42.3663 7.19222 39.5214 12.1624C36.7341 17.0311 38.3867 23.0562 43.366 26.1777C47.907 29.0234 60.4608 34.4065 60.9931 34.634C61.3404 34.7833 61.7298 34.809 62.0956 34.7066L62.1299 34.6965C62.5003 34.6114 62.8339 34.3849 63.0706 34.0549C63.4085 33.5848 71.3681 22.4832 73.783 17.6979C76.429 12.4514 74.7263 6.44023 69.8228 3.71542Z" fill="#F7EF8A"/>
</svg>
