<svg width="142" height="43" viewBox="0 0 142 43" fill="none" xmlns="http://www.w3.org/2000/svg">
<path opacity="0.45" fill-rule="evenodd" clip-rule="evenodd" d="M41.1774 30.3436L35.8318 36.7238C35.7633 36.806 35.6735 36.8677 35.5723 36.9023C35.4711 36.9369 35.3623 36.943 35.2578 36.92C35.1533 36.8972 35.0571 36.8463 34.9795 36.7727C34.9019 36.6991 34.8459 36.6057 34.8177 36.5026L33.1381 30.3843L28.4948 37.7157C28.442 37.7992 28.3689 37.868 28.2824 37.9157C28.1958 37.9633 28.0986 37.9883 27.9998 37.9883C27.901 37.9883 27.8038 37.9633 27.7173 37.9157C27.6307 37.868 27.5576 37.7992 27.5048 37.7157L22.8616 30.3843L21.1821 36.5026C21.1538 36.6057 21.0978 36.6991 21.0202 36.7727C20.9426 36.8462 20.8464 36.8972 20.7419 36.92C20.6375 36.9428 20.5288 36.9365 20.4276 36.902C20.3264 36.8674 20.2366 36.8058 20.1679 36.7238L14.8222 30.3436L14.5015 28.1362L17.4425 21.3491C17.4849 21.2513 17.5531 21.167 17.6398 21.1051C17.7265 21.0433 17.8284 21.0062 17.9346 20.9979C18.0408 20.9898 18.1472 21.0107 18.2424 21.0584C18.3376 21.1061 18.4181 21.1788 18.4752 21.2687L22.8616 28.1362L27.4346 16.2981C27.4686 16.1743 27.5423 16.0651 27.6444 15.9873C27.7465 15.9095 27.8713 15.8673 27.9996 15.8673C28.128 15.8673 28.2528 15.9095 28.3549 15.9873C28.457 16.0651 28.5307 16.1743 28.5647 16.2981L33.1381 28.1362L37.5242 21.2687C37.5815 21.1789 37.662 21.1064 37.7571 21.0587C37.8523 21.011 37.9586 20.99 38.0647 20.9979C38.1709 21.0062 38.2728 21.0432 38.3595 21.1051C38.4462 21.167 38.5144 21.2513 38.5568 21.3491L41.4979 28.1362L41.1774 30.3436ZM27.9998 36.3073L23.281 28.8564L27.9998 18.6666L32.7187 28.8566L27.9998 36.3073ZM35.6517 35.1143L33.4998 29.5L37.922 22.8309L40.6563 29.141L35.6517 35.1143ZM20.3481 35.1143L15.3433 29.141L18.0778 22.831L22.4998 29.5L20.3481 35.1143Z" fill="#E8C662"/>
<path d="M5 4.5L20.5 37L28 16.5L35.5 37L52 4.5L37 41.8164L28 23.5L19.1737 41.8164L5 4.5Z" fill="url(#paint0_linear_330_182)"/>
<path d="M20.5 37L5 4.5L19.1737 41.8164M20.5 37L28 16.5L35.5 37M20.5 37L19.1737 41.8164M19.1737 41.8164L28 23.5L37 41.8164M35.5 37L52 4.5L37 41.8164M35.5 37L37 41.8164" stroke="url(#paint1_linear_330_182)" stroke-linecap="round" stroke-linejoin="round"/>
<path opacity="0.6" d="M74.6417 4.52312L76.0001 6.54406L77.3586 4.52315L76.0001 1.75928L74.6417 4.52312ZM80.036 4.65401L80.8375 6.39664L82.3909 2.00576L80.036 4.65401ZM69.6094 2.00576L71.1628 6.39664L71.9643 4.65401L69.6094 2.00576Z" fill="#E8C662"/>
<path d="M56.8002 17.696L56.9442 17.216H61.0962L60.9522 17.696H56.8002ZM59.2482 17.216C59.7762 17.216 60.2082 17.112 60.5442 16.904C60.8802 16.68 61.1522 16.4 61.3602 16.064C61.5842 15.728 61.7682 15.384 61.9122 15.032C62.0562 14.664 62.1922 14.336 62.3202 14.048H62.8722C62.5682 14.96 62.3522 15.656 62.2242 16.136C62.1122 16.616 62.0002 17.056 61.8882 17.456C61.8242 17.712 61.7522 17.992 61.6722 18.296C61.6082 18.584 61.5282 18.936 61.4322 19.352C61.3522 19.752 61.2482 20.256 61.1202 20.864H60.5682C60.6162 20.48 60.6642 20.104 60.7122 19.736C60.7602 19.352 60.7522 19.008 60.6882 18.704C60.6402 18.4 60.4962 18.16 60.2562 17.984C60.0162 17.792 59.6322 17.696 59.1042 17.696L59.2482 17.216ZM65.6082 13.328C65.7682 12.384 65.8322 11.64 65.8002 11.096C65.7682 10.536 65.5682 10.144 65.2002 9.92C64.8482 9.68 64.2482 9.56 63.4002 9.56H61.6482C61.1042 9.56 60.6802 9.608 60.3762 9.704C60.0882 9.784 59.8562 9.96799 59.6802 10.256C59.5042 10.528 59.3362 10.96 59.1762 11.552L55.9842 23.456C55.8242 24.032 55.7522 24.464 55.7682 24.752C55.8002 25.04 55.9442 25.232 56.2002 25.328C56.4562 25.408 56.8562 25.448 57.4002 25.448H59.1522C60.1602 25.448 60.9602 25.312 61.5522 25.04C62.1442 24.768 62.6402 24.328 63.0402 23.72C63.4402 23.096 63.8322 22.256 64.2162 21.2H64.7682C64.6882 21.408 64.6002 21.664 64.5042 21.968C64.4082 22.272 64.3202 22.592 64.2402 22.928C64.1602 23.232 64.0562 23.672 63.9282 24.248C63.8002 24.808 63.6882 25.392 63.5922 26C62.7762 25.968 61.8562 25.952 60.8322 25.952C59.8082 25.936 58.8962 25.928 58.0962 25.928C57.7442 25.928 57.2882 25.928 56.7282 25.928C56.1842 25.928 55.5922 25.936 54.9522 25.952C54.3122 25.952 53.6642 25.96 53.0082 25.976C52.3522 25.976 51.7362 25.984 51.1602 26L51.2802 25.52C51.8242 25.488 52.2482 25.424 52.5522 25.328C52.8562 25.232 53.0882 25.04 53.2482 24.752C53.4242 24.464 53.5922 24.032 53.7522 23.456L56.9442 11.552C57.1042 10.96 57.1682 10.528 57.1362 10.256C57.1202 9.96799 56.9842 9.776 56.7282 9.68C56.4882 9.568 56.0962 9.504 55.5522 9.488L55.6722 9.008C56.2642 9.024 56.8882 9.03999 57.5442 9.05599C58.2002 9.05599 58.8482 9.064 59.4882 9.08C60.1282 9.08 60.7202 9.08 61.2642 9.08C61.8242 9.08 62.2802 9.08 62.6322 9.08C63.3362 9.08 64.1282 9.08 65.0082 9.08C65.9042 9.064 66.7042 9.04 67.4082 9.008C67.2002 9.568 67.0162 10.112 66.8562 10.64C66.6962 11.168 66.5762 11.568 66.4962 11.84C66.4162 12.128 66.3442 12.408 66.2802 12.68C66.2322 12.936 66.1922 13.152 66.1602 13.328H65.6082ZM76.5366 9.03199C78.0566 9.03199 79.1846 9.31199 79.9206 9.87199C80.6726 10.432 81.0486 11.176 81.0486 12.104C81.0486 12.92 80.8086 13.656 80.3286 14.312C79.8486 14.952 79.2326 15.504 78.4806 15.968C77.7286 16.416 76.9446 16.768 76.1286 17.024C77.6006 17.264 78.6246 17.744 79.2006 18.464C79.7766 19.168 80.0646 19.992 80.0646 20.936C80.0646 21.8 79.8566 22.552 79.4406 23.192C79.0246 23.816 78.4726 24.336 77.7846 24.752C77.0966 25.168 76.3286 25.48 75.4806 25.688C74.6326 25.896 73.7766 26 72.9126 26C72.3046 26 71.6726 25.992 71.0166 25.976C70.3606 25.944 69.6166 25.928 68.7846 25.928C68.4166 25.928 68.0486 25.936 67.6806 25.952C67.3126 25.952 66.9686 25.96 66.6486 25.976C66.3446 25.976 66.0806 25.984 65.8566 26L65.9526 25.52C66.4966 25.488 66.9206 25.424 67.2246 25.328C67.5286 25.232 67.7686 25.04 67.9446 24.752C68.1206 24.464 68.2806 24.032 68.4246 23.456L71.5926 11.552C71.7046 11.072 71.7686 10.688 71.7846 10.4C71.8006 10.096 71.6886 9.87199 71.4486 9.72799C71.2246 9.56799 70.8006 9.488 70.1766 9.488L70.2966 9.008C70.5206 9.024 70.7846 9.03999 71.0886 9.05599C71.3926 9.05599 71.7206 9.064 72.0726 9.08C72.4406 9.08 72.8006 9.08 73.1526 9.08C73.7126 9.08 74.2646 9.07199 74.8086 9.05599C75.3686 9.03999 75.9446 9.03199 76.5366 9.03199ZM71.9766 17.384L72.0726 16.976H73.9446C74.9206 16.976 75.7606 16.76 76.4646 16.328C77.1686 15.88 77.7126 15.296 78.0966 14.576C78.4806 13.856 78.6726 13.088 78.6726 12.272C78.6726 11.328 78.4646 10.632 78.0486 10.184C77.6486 9.72 76.9926 9.488 76.0806 9.488C75.3766 9.488 74.8806 9.6 74.5926 9.824C74.3046 10.032 74.0726 10.488 73.8966 11.192L70.6566 23.456C70.5286 23.936 70.4566 24.328 70.4406 24.632C70.4406 24.92 70.5446 25.128 70.7526 25.256C70.9606 25.384 71.3366 25.448 71.8806 25.448C73.2886 25.448 74.4086 25.256 75.2406 24.872C76.0886 24.488 76.7046 23.936 77.0886 23.216C77.4726 22.48 77.6646 21.6 77.6646 20.576C77.6646 19.904 77.5446 19.336 77.3046 18.872C77.0646 18.392 76.6886 18.024 76.1766 17.768C75.6806 17.512 75.0326 17.384 74.2326 17.384H71.9766Z" fill="#E8C662"/>
<path d="M101.24 9.08H102.392C102.952 9.08 103.496 9.07199 104.024 9.05599C104.552 9.03999 105.008 9.024 105.392 9.008L105.272 9.488C104.728 9.504 104.304 9.568 104 9.68C103.696 9.776 103.456 9.96799 103.28 10.256C103.12 10.528 102.96 10.96 102.8 11.552L99.6321 23.456C99.4881 24.032 99.4241 24.464 99.4401 24.752C99.4721 25.04 99.6161 25.232 99.8721 25.328C100.128 25.424 100.52 25.488 101.048 25.52L100.952 26C100.584 25.968 100.136 25.952 99.6081 25.952C99.0801 25.936 98.5361 25.928 97.9761 25.928C97.3521 25.928 96.7601 25.936 96.2001 25.952C95.6401 25.952 95.1921 25.968 94.8561 26L94.9521 25.52C95.5121 25.488 95.9361 25.424 96.2241 25.328C96.5281 25.232 96.7681 25.04 96.9441 24.752C97.1201 24.464 97.2801 24.032 97.4241 23.456L100.904 10.52L90.9441 26.12H90.4161L88.7841 10.328L85.3761 23.216C85.2321 23.792 85.1681 24.248 85.1841 24.584C85.2001 24.904 85.3521 25.136 85.6401 25.28C85.9281 25.408 86.3761 25.488 86.9841 25.52L86.8641 26C86.6881 25.984 86.4561 25.976 86.1681 25.976C85.8961 25.96 85.6081 25.952 85.3041 25.952C85.0001 25.936 84.7121 25.928 84.4401 25.928C84.0401 25.928 83.6321 25.936 83.2161 25.952C82.8001 25.952 82.4561 25.968 82.1841 26L82.3041 25.52C82.8641 25.488 83.2961 25.408 83.6001 25.28C83.9041 25.136 84.1441 24.904 84.3201 24.584C84.5121 24.248 84.6801 23.792 84.8241 23.216L87.9441 11.552C88.1041 10.96 88.1681 10.528 88.1361 10.256C88.1041 9.96799 87.9601 9.776 87.7041 9.68C87.4641 9.568 87.0721 9.504 86.5281 9.488L86.6481 9.008C86.9041 9.024 87.2161 9.03999 87.5841 9.05599C87.9681 9.07199 88.3681 9.08 88.7841 9.08C89.1521 9.08 89.5281 9.07199 89.9121 9.05599C90.2961 9.03999 90.6241 9.024 90.8961 9.008L92.2161 23.24L101.24 9.08ZM109.916 15.84C109.489 15.84 109.076 16.0133 108.676 16.36C108.289 16.6933 107.929 17.1533 107.596 17.74C107.276 18.3133 106.989 18.96 106.736 19.68C106.496 20.4 106.309 21.1467 106.176 21.92C106.043 22.6933 105.976 23.4333 105.976 24.14C105.976 24.74 106.069 25.18 106.256 25.46C106.456 25.74 106.743 25.88 107.116 25.88C107.543 25.88 107.949 25.7133 108.336 25.38C108.736 25.0333 109.103 24.5733 109.436 24C109.769 23.4133 110.056 22.76 110.296 22.04C110.536 21.32 110.723 20.58 110.856 19.82C110.989 19.0467 111.056 18.3 111.056 17.58C111.056 16.9667 110.963 16.5267 110.776 16.26C110.589 15.98 110.303 15.84 109.916 15.84ZM104.256 23.14C104.256 22.5533 104.336 21.9133 104.496 21.22C104.656 20.5267 104.896 19.84 105.216 19.16C105.536 18.48 105.923 17.86 106.376 17.3C106.843 16.74 107.383 16.2933 107.996 15.96C108.609 15.6133 109.289 15.44 110.036 15.44C110.863 15.44 111.523 15.7 112.016 16.22C112.523 16.7267 112.776 17.5133 112.776 18.58C112.776 19.1667 112.696 19.8067 112.536 20.5C112.376 21.1933 112.136 21.88 111.816 22.56C111.496 23.24 111.103 23.86 110.636 24.42C110.183 24.98 109.649 25.4333 109.036 25.78C108.423 26.1133 107.743 26.28 106.996 26.28C106.169 26.28 105.503 26.02 104.996 25.5C104.503 24.98 104.256 24.1933 104.256 23.14ZM120.982 24.3C120.888 24.6067 120.848 24.8933 120.862 25.16C120.888 25.4133 121.048 25.54 121.342 25.54C121.608 25.54 121.855 25.3933 122.082 25.1C122.308 24.7933 122.548 24.26 122.802 23.5L123.042 22.76H123.422L122.962 24.22C122.802 24.7533 122.588 25.1733 122.322 25.48C122.055 25.7733 121.775 25.98 121.482 26.1C121.188 26.22 120.908 26.28 120.642 26.28C119.842 26.28 119.422 25.9 119.382 25.14C119.368 24.9267 119.382 24.68 119.422 24.4C119.475 24.12 119.548 23.8133 119.642 23.48L122.522 12.66C122.642 12.2067 122.622 11.8733 122.462 11.66C122.302 11.4467 121.895 11.34 121.242 11.34L121.362 10.92C122.095 10.9067 122.742 10.8333 123.302 10.7C123.862 10.5533 124.395 10.3533 124.902 10.1L120.982 24.3ZM116.502 25.64C116.835 25.64 117.208 25.4467 117.622 25.06C118.048 24.66 118.475 24.1267 118.902 23.46C119.342 22.78 119.742 22.0133 120.102 21.16C120.475 20.2933 120.768 19.4 120.982 18.48L120.682 20.64C120.162 22.0133 119.642 23.1133 119.122 23.94C118.615 24.7667 118.095 25.3667 117.562 25.74C117.042 26.1 116.495 26.28 115.922 26.28C115.508 26.28 115.142 26.1867 114.822 26C114.515 25.8 114.275 25.5067 114.102 25.12C113.928 24.7333 113.842 24.24 113.842 23.64C113.842 23 113.942 22.3133 114.142 21.58C114.355 20.8333 114.655 20.1 115.042 19.38C115.428 18.66 115.888 18.0067 116.422 17.42C116.968 16.82 117.568 16.34 118.222 15.98C118.875 15.62 119.568 15.44 120.302 15.44C120.608 15.44 120.895 15.56 121.162 15.8C121.428 16.0267 121.575 16.3733 121.602 16.84L121.442 17.24C121.388 16.76 121.255 16.42 121.042 16.22C120.828 16.0067 120.588 15.9 120.322 15.9C119.815 15.9 119.322 16.0733 118.842 16.42C118.375 16.7667 117.948 17.2267 117.562 17.8C117.175 18.3733 116.835 19.0133 116.542 19.72C116.248 20.4133 116.022 21.1267 115.862 21.86C115.702 22.58 115.622 23.26 115.622 23.9C115.622 24.4867 115.695 24.9267 115.842 25.22C115.988 25.5 116.208 25.64 116.502 25.64ZM126.121 21.46C126.868 21.2067 127.541 20.96 128.141 20.72C128.755 20.4667 129.241 20.2 129.601 19.92C130.081 19.5333 130.461 19.0667 130.741 18.52C131.021 17.9733 131.161 17.3733 131.161 16.72C131.161 16.3333 131.135 16.0867 131.081 15.98C131.028 15.8733 130.948 15.82 130.841 15.82C130.508 15.82 130.148 15.9667 129.761 16.26C129.375 16.5533 128.995 16.96 128.621 17.48C128.248 17.9867 127.901 18.5667 127.581 19.22C127.275 19.8733 127.028 20.5733 126.841 21.32C126.655 22.0533 126.561 22.7867 126.561 23.52C126.561 24.2 126.688 24.6933 126.941 25C127.195 25.2933 127.528 25.44 127.941 25.44C128.421 25.44 128.928 25.2933 129.461 25C129.995 24.7067 130.515 24.1867 131.021 23.44L131.341 23.6C131.088 24.04 130.755 24.4667 130.341 24.88C129.928 25.2933 129.461 25.6333 128.941 25.9C128.435 26.1533 127.895 26.28 127.321 26.28C126.788 26.28 126.321 26.1733 125.921 25.96C125.521 25.7467 125.215 25.4333 125.001 25.02C124.788 24.5933 124.681 24.0733 124.681 23.46C124.681 22.8867 124.788 22.2467 125.001 21.54C125.215 20.82 125.515 20.1067 125.901 19.4C126.301 18.68 126.775 18.02 127.321 17.42C127.868 16.82 128.475 16.34 129.141 15.98C129.808 15.62 130.521 15.44 131.281 15.44C131.695 15.44 132.041 15.5533 132.321 15.78C132.615 15.9933 132.761 16.32 132.761 16.76C132.761 17.2933 132.601 17.7933 132.281 18.26C131.975 18.7133 131.561 19.1333 131.041 19.52C130.535 19.8933 129.981 20.2267 129.381 20.52C128.781 20.8133 128.195 21.0667 127.621 21.28C127.048 21.4933 126.541 21.6667 126.101 21.8L126.121 21.46ZM135.056 24.3C134.949 24.6867 134.916 24.9933 134.956 25.22C134.996 25.4333 135.142 25.54 135.396 25.54C135.662 25.54 135.909 25.3933 136.136 25.1C136.376 24.7933 136.629 24.26 136.896 23.5L137.156 22.76H137.536L137.036 24.22C136.862 24.7267 136.649 25.1333 136.396 25.44C136.156 25.7333 135.889 25.9467 135.596 26.08C135.302 26.2133 134.982 26.28 134.636 26.28C134.196 26.28 133.869 26.1933 133.656 26.02C133.456 25.86 133.329 25.64 133.276 25.36C133.236 25.08 133.242 24.78 133.296 24.46C133.362 24.1267 133.442 23.8 133.536 23.48L136.796 12.66C136.929 12.2067 136.916 11.8733 136.756 11.66C136.596 11.4467 136.189 11.34 135.536 11.34L135.676 10.92C136.409 10.9067 137.056 10.8333 137.616 10.7C138.176 10.5533 138.716 10.3533 139.236 10.1L135.056 24.3Z" fill="white"/>
<path d="M48.1569 39.055C47.6069 39.055 47.1266 38.956 46.7159 38.758C46.3126 38.5527 46.0009 38.2667 45.7809 37.9C45.5682 37.5333 45.4619 37.097 45.4619 36.591C45.4619 35.931 45.6012 35.3443 45.8799 34.831C46.1586 34.3177 46.5399 33.9143 47.0239 33.621C47.5079 33.3203 48.0542 33.17 48.6629 33.17C49.1762 33.17 49.6199 33.269 49.9939 33.467C50.3679 33.6577 50.6576 33.9363 50.8629 34.303C51.0756 34.6697 51.1819 35.1097 51.1819 35.623C51.1819 35.7403 51.1746 35.8613 51.1599 35.986C51.1452 36.1033 51.1269 36.217 51.1049 36.327H46.0339L46.1329 35.744H50.7419L50.4229 35.964C50.4962 35.502 50.4632 35.1133 50.3239 34.798C50.1846 34.4827 49.9682 34.2443 49.6749 34.083C49.3889 33.9143 49.0442 33.83 48.6409 33.83C48.1716 33.83 47.7536 33.9473 47.3869 34.182C47.0202 34.4093 46.7342 34.7283 46.5289 35.139C46.3236 35.5423 46.2209 36.0153 46.2209 36.558C46.2209 37.1373 46.3859 37.5847 46.7159 37.9C47.0532 38.208 47.5556 38.362 48.2229 38.362C48.6116 38.362 48.9709 38.2997 49.3009 38.175C49.6309 38.043 49.9022 37.8633 50.1149 37.636L50.4669 38.197C50.1956 38.4683 49.8546 38.681 49.4439 38.835C49.0406 38.9817 48.6116 39.055 48.1569 39.055ZM52.1663 39L53.7943 30.838H54.5753L53.7613 34.897L53.4093 36.041L53.2773 37.163L52.9143 39H52.1663ZM55.3783 39.055C54.8796 39.055 54.4506 38.967 54.0913 38.791C53.7393 38.6077 53.468 38.3473 53.2773 38.01C53.094 37.6653 52.9986 37.251 52.9913 36.767C52.9913 36.239 53.0646 35.755 53.2113 35.315C53.358 34.875 53.567 34.4973 53.8383 34.182C54.117 33.8593 54.447 33.61 54.8283 33.434C55.217 33.258 55.6496 33.17 56.1263 33.17C56.625 33.17 57.0613 33.269 57.4353 33.467C57.8166 33.6577 58.1136 33.9363 58.3263 34.303C58.5463 34.6697 58.6563 35.106 58.6563 35.612C58.6563 36.1107 58.5756 36.569 58.4143 36.987C58.253 37.405 58.022 37.768 57.7213 38.076C57.428 38.384 57.0833 38.626 56.6873 38.802C56.2913 38.9707 55.855 39.055 55.3783 39.055ZM55.3673 38.362C55.8513 38.362 56.2803 38.2483 56.6543 38.021C57.0283 37.7863 57.3216 37.4637 57.5343 37.053C57.7543 36.6423 57.8643 36.1767 57.8643 35.656C57.8643 35.084 57.6993 34.6403 57.3693 34.325C57.0393 34.0097 56.57 33.852 55.9613 33.852C55.4846 33.852 55.0556 33.9693 54.6743 34.204C54.3003 34.4387 54.0033 34.7613 53.7833 35.172C53.5706 35.5753 53.4643 36.041 53.4643 36.569C53.4643 37.1337 53.6293 37.5737 53.9593 37.889C54.2893 38.2043 54.7586 38.362 55.3673 38.362ZM62.2394 39.055C61.6894 39.055 61.2127 38.956 60.8094 38.758C60.4134 38.5527 60.1054 38.2667 59.8854 37.9C59.6727 37.5333 59.5664 37.1007 59.5664 36.602C59.5664 35.942 59.7094 35.3553 59.9954 34.842C60.2814 34.3213 60.6774 33.9143 61.1834 33.621C61.6967 33.3203 62.2797 33.17 62.9324 33.17C63.4677 33.17 63.9261 33.269 64.3074 33.467C64.6961 33.6577 64.9967 33.9437 65.2094 34.325L64.5494 34.71C64.3881 34.4167 64.1644 34.2003 63.8784 34.061C63.5997 33.9217 63.2624 33.852 62.8664 33.852C62.3824 33.852 61.9497 33.9693 61.5684 34.204C61.1871 34.4387 60.8864 34.7613 60.6664 35.172C60.4537 35.5753 60.3474 36.041 60.3474 36.569C60.3474 37.1337 60.5124 37.5737 60.8424 37.889C61.1797 38.2043 61.6564 38.362 62.2724 38.362C62.6464 38.362 62.9911 38.2923 63.3064 38.153C63.6291 38.0063 63.8931 37.7973 64.0984 37.526L64.6594 37.955C64.4101 38.2997 64.0691 38.571 63.6364 38.769C63.2037 38.9597 62.7381 39.055 62.2394 39.055ZM68.187 39.055C67.6956 39.055 67.2593 38.956 66.878 38.758C66.4966 38.56 66.1996 38.2777 65.987 37.911C65.7743 37.5443 65.668 37.108 65.668 36.602C65.668 36.1107 65.7486 35.656 65.91 35.238C66.0713 34.82 66.2986 34.457 66.592 34.149C66.8853 33.8337 67.23 33.5917 67.626 33.423C68.0293 33.2543 68.4656 33.17 68.935 33.17C69.441 33.17 69.87 33.2617 70.222 33.445C70.574 33.621 70.8453 33.8813 71.036 34.226C71.2266 34.5633 71.322 34.974 71.322 35.458C71.322 36.1547 71.1936 36.7743 70.937 37.317C70.6803 37.8597 70.3173 38.285 69.848 38.593C69.3786 38.901 68.825 39.055 68.187 39.055ZM68.352 38.362C68.836 38.362 69.265 38.2483 69.639 38.021C70.0203 37.7863 70.3173 37.4637 70.53 37.053C70.75 36.6423 70.86 36.1767 70.86 35.656C70.86 35.084 70.6913 34.6403 70.354 34.325C70.024 34.0097 69.5583 33.852 68.957 33.852C68.4803 33.852 68.0513 33.9693 67.67 34.204C67.2886 34.4387 66.988 34.7613 66.768 35.172C66.5553 35.5753 66.449 36.041 66.449 36.569C66.449 37.1337 66.614 37.5737 66.944 37.889C67.2813 38.2043 67.7506 38.362 68.352 38.362ZM70.255 39L70.585 37.339L70.915 36.173L71.025 34.963L71.377 33.225H72.158L71.003 39H70.255ZM81.406 33.17C81.9267 33.17 82.3484 33.2727 82.671 33.478C83.001 33.676 83.2284 33.9657 83.353 34.347C83.4777 34.7283 83.485 35.183 83.375 35.711L82.715 39H81.934L82.594 35.7C82.7114 35.128 82.6564 34.6807 82.429 34.358C82.209 34.0353 81.8057 33.874 81.219 33.874C80.6397 33.874 80.152 34.0353 79.756 34.358C79.3674 34.6807 79.107 35.1647 78.975 35.81L78.337 39H77.556L78.216 35.7C78.3334 35.128 78.2784 34.6807 78.051 34.358C77.8237 34.0353 77.4204 33.874 76.841 33.874C76.247 33.874 75.7557 34.0427 75.367 34.38C74.9784 34.7173 74.7144 35.2233 74.575 35.898L73.959 39H73.178L74.322 33.225H75.07L74.74 34.886L74.575 34.6C74.8537 34.1013 75.2057 33.7383 75.631 33.511C76.0564 33.2837 76.5367 33.17 77.072 33.17C77.4754 33.17 77.82 33.2397 78.106 33.379C78.3994 33.511 78.6267 33.709 78.788 33.973C78.9567 34.2297 79.0484 34.5377 79.063 34.897L78.656 34.809C78.942 34.259 79.3197 33.8483 79.789 33.577C80.2657 33.3057 80.8047 33.17 81.406 33.17Z" fill="#E8C662"/>
<path d="M90.5831 39.066C90.0111 39.066 89.4611 38.9743 88.9331 38.791C88.4124 38.6003 88.0091 38.3583 87.7231 38.065L88.0421 37.438C88.3134 37.702 88.6764 37.9257 89.1311 38.109C89.5931 38.285 90.0771 38.373 90.5831 38.373C91.0671 38.373 91.4594 38.3143 91.7601 38.197C92.0681 38.0723 92.2917 37.9073 92.4311 37.702C92.5777 37.4967 92.6511 37.2693 92.6511 37.02C92.6511 36.7193 92.5631 36.4773 92.3871 36.294C92.2184 36.1107 91.9947 35.9677 91.7161 35.865C91.4374 35.755 91.1294 35.6597 90.7921 35.579C90.4547 35.4983 90.1174 35.414 89.7801 35.326C89.4427 35.2307 89.1311 35.106 88.8451 34.952C88.5664 34.798 88.3391 34.5963 88.1631 34.347C87.9944 34.0903 87.9101 33.7567 87.9101 33.346C87.9101 32.9647 88.0091 32.6163 88.2071 32.301C88.4124 31.9783 88.7241 31.7217 89.1421 31.531C89.5601 31.333 90.0954 31.234 90.7481 31.234C91.1807 31.234 91.6097 31.2963 92.0351 31.421C92.4604 31.5383 92.8271 31.7033 93.1351 31.916L92.8601 32.565C92.5301 32.345 92.1781 32.1837 91.8041 32.081C91.4374 31.9783 91.0817 31.927 90.7371 31.927C90.2751 31.927 89.8937 31.9893 89.5931 32.114C89.2924 32.2387 89.0687 32.4073 88.9221 32.62C88.7827 32.8253 88.7131 33.06 88.7131 33.324C88.7131 33.6247 88.7974 33.8667 88.9661 34.05C89.1421 34.2333 89.3694 34.3763 89.6481 34.479C89.9341 34.5817 90.2457 34.6733 90.5831 34.754C90.9204 34.8347 91.2541 34.9227 91.5841 35.018C91.9214 35.1133 92.2294 35.238 92.5081 35.392C92.7941 35.5387 93.0214 35.7367 93.1901 35.986C93.3661 36.2353 93.4541 36.5617 93.4541 36.965C93.4541 37.339 93.3514 37.6873 93.1461 38.01C92.9407 38.3253 92.6254 38.582 92.2001 38.78C91.7821 38.9707 91.2431 39.066 90.5831 39.066ZM97.5156 39.055C96.9143 39.055 96.3863 38.9303 95.9316 38.681C95.477 38.4243 95.1213 38.076 94.8646 37.636C94.608 37.1887 94.4796 36.679 94.4796 36.107C94.4796 35.535 94.6006 35.029 94.8426 34.589C95.092 34.149 95.4293 33.8043 95.8546 33.555C96.2873 33.2983 96.7713 33.17 97.3066 33.17C97.8493 33.17 98.3296 33.2947 98.7476 33.544C99.173 33.786 99.5066 34.1307 99.7486 34.578C99.9906 35.018 100.112 35.5277 100.112 36.107C100.112 36.1437 100.108 36.184 100.101 36.228C100.101 36.2647 100.101 36.305 100.101 36.349H95.0736V35.766H99.6826L99.3746 35.997C99.3746 35.579 99.283 35.2087 99.0996 34.886C98.9236 34.556 98.6816 34.2993 98.3736 34.116C98.0656 33.9327 97.71 33.841 97.3066 33.841C96.9106 33.841 96.555 33.9327 96.2396 34.116C95.9243 34.2993 95.6786 34.556 95.5026 34.886C95.3266 35.216 95.2386 35.5937 95.2386 36.019V36.14C95.2386 36.58 95.334 36.9687 95.5246 37.306C95.7226 37.636 95.994 37.8963 96.3386 38.087C96.6906 38.2703 97.0903 38.362 97.5376 38.362C97.8896 38.362 98.216 38.2997 98.5166 38.175C98.8246 38.0503 99.0886 37.8597 99.3086 37.603L99.7486 38.109C99.492 38.417 99.1693 38.6517 98.7806 38.813C98.3993 38.9743 97.9776 39.055 97.5156 39.055ZM101.701 39V33.225H102.449V34.798L102.372 34.523C102.534 34.083 102.805 33.7493 103.186 33.522C103.568 33.2873 104.041 33.17 104.605 33.17V33.929C104.576 33.929 104.547 33.929 104.517 33.929C104.488 33.9217 104.459 33.918 104.429 33.918C103.821 33.918 103.344 34.105 102.999 34.479C102.655 34.8457 102.482 35.37 102.482 36.052V39H101.701ZM107.762 39L105.199 33.225H106.013L108.367 38.582H107.982L110.369 33.225H111.139L108.565 39H107.762ZM112.239 39V33.225H113.02V39H112.239ZM112.635 31.949C112.474 31.949 112.338 31.894 112.228 31.784C112.118 31.674 112.063 31.542 112.063 31.388C112.063 31.234 112.118 31.1057 112.228 31.003C112.338 30.893 112.474 30.838 112.635 30.838C112.797 30.838 112.932 30.8893 113.042 30.992C113.152 31.0947 113.207 31.223 113.207 31.377C113.207 31.5383 113.152 31.674 113.042 31.784C112.94 31.894 112.804 31.949 112.635 31.949ZM117.591 39.055C117.019 39.055 116.506 38.9303 116.051 38.681C115.604 38.4243 115.252 38.076 114.995 37.636C114.739 37.1887 114.61 36.679 114.61 36.107C114.61 35.5277 114.739 35.018 114.995 34.578C115.252 34.138 115.604 33.7933 116.051 33.544C116.506 33.2947 117.019 33.17 117.591 33.17C118.083 33.17 118.526 33.2653 118.922 33.456C119.318 33.6467 119.63 33.9327 119.857 34.314L119.274 34.71C119.076 34.4167 118.831 34.2003 118.537 34.061C118.244 33.9217 117.925 33.852 117.58 33.852C117.17 33.852 116.799 33.9473 116.469 34.138C116.139 34.3213 115.879 34.5817 115.688 34.919C115.498 35.2563 115.402 35.6523 115.402 36.107C115.402 36.5617 115.498 36.9577 115.688 37.295C115.879 37.6323 116.139 37.8963 116.469 38.087C116.799 38.2703 117.17 38.362 117.58 38.362C117.925 38.362 118.244 38.2923 118.537 38.153C118.831 38.0137 119.076 37.801 119.274 37.515L119.857 37.911C119.63 38.285 119.318 38.571 118.922 38.769C118.526 38.9597 118.083 39.055 117.591 39.055ZM123.748 39.055C123.147 39.055 122.619 38.9303 122.164 38.681C121.709 38.4243 121.354 38.076 121.097 37.636C120.84 37.1887 120.712 36.679 120.712 36.107C120.712 35.535 120.833 35.029 121.075 34.589C121.324 34.149 121.662 33.8043 122.087 33.555C122.52 33.2983 123.004 33.17 123.539 33.17C124.082 33.17 124.562 33.2947 124.98 33.544C125.405 33.786 125.739 34.1307 125.981 34.578C126.223 35.018 126.344 35.5277 126.344 36.107C126.344 36.1437 126.34 36.184 126.333 36.228C126.333 36.2647 126.333 36.305 126.333 36.349H121.306V35.766H125.915L125.607 35.997C125.607 35.579 125.515 35.2087 125.332 34.886C125.156 34.556 124.914 34.2993 124.606 34.116C124.298 33.9327 123.942 33.841 123.539 33.841C123.143 33.841 122.787 33.9327 122.472 34.116C122.157 34.2993 121.911 34.556 121.735 34.886C121.559 35.216 121.471 35.5937 121.471 36.019V36.14C121.471 36.58 121.566 36.9687 121.757 37.306C121.955 37.636 122.226 37.8963 122.571 38.087C122.923 38.2703 123.323 38.362 123.77 38.362C124.122 38.362 124.448 38.2997 124.749 38.175C125.057 38.0503 125.321 37.8597 125.541 37.603L125.981 38.109C125.724 38.417 125.402 38.6517 125.013 38.813C124.632 38.9743 124.21 39.055 123.748 39.055Z" fill="white"/>
<defs>
<linearGradient id="paint0_linear_330_182" x1="5" y1="32.4607" x2="52.1129" y2="32.1822" gradientUnits="userSpaceOnUse">
<stop stop-color="#B38D2A"/>
<stop offset="0.3125" stop-color="#F7EF8A"/>
<stop offset="0.625" stop-color="#D0AA45"/>
<stop offset="1" stop-color="#E8C662"/>
</linearGradient>
<linearGradient id="paint1_linear_330_182" x1="5" y1="32.4607" x2="52.1129" y2="32.1822" gradientUnits="userSpaceOnUse">
<stop stop-color="#B38D2A"/>
<stop offset="0.3125" stop-color="#F7EF8A"/>
<stop offset="0.625" stop-color="#D0AA45"/>
<stop offset="1" stop-color="#E8C662"/>
</linearGradient>
</defs>
</svg>
