<svg width="80" height="40" viewBox="0 0 80 40" fill="none" xmlns="http://www.w3.org/2000/svg">
<g clip-path="url(#clip0_349_148)">
<path d="M-4.39551 -2.20557H84.3957V42.2389H-4.39551V-2.20557Z" fill="#DF212F"/>
<path d="M10.8481 3.36872C11.3524 2.86389 11.8445 2.34588 12.3611 1.85498C12.9015 2.35672 13.4319 2.87008 13.9739 3.3695C13.4296 3.86582 12.9023 4.38073 12.3626 4.88247C11.8437 4.39312 11.354 3.87279 10.8481 3.36872Z" fill="#F8BD15"/>
<path d="M9.288 5.76507C10.1613 5.53355 11.0631 5.43986 11.9625 5.38489C11.9656 8.27687 11.9633 11.1689 11.9633 14.0608C10.9931 14.0663 10.0229 14.0678 9.05276 14.0616C8.72527 14.0701 8.45083 13.8138 8.33321 13.5227C7.62903 11.8564 6.95175 10.1785 6.23527 8.51768C6.04847 8.65086 5.85935 8.78249 5.66563 8.90637C6.32214 10.64 7.06937 12.3396 7.74972 14.0639C7.24311 14.0593 6.73573 14.0787 6.22989 14.0508C5.70714 12.1406 4.88688 10.3342 4.13965 8.50684C5.60874 7.19983 7.37688 6.22422 9.288 5.76507Z" fill="#F8BD15"/>
<path d="M12.7552 5.3833C14.0105 5.45299 15.2667 5.64346 16.4552 6.06855C17.9765 6.57726 19.3595 7.44447 20.5703 8.49441C19.91 10.3922 19.0766 12.2226 18.2748 14.0631C17.8389 14.0655 17.4038 14.0655 16.9679 14.0631C17.5514 12.6307 18.1395 11.2006 18.7238 9.76813C18.8414 9.48396 18.9659 9.20134 19.0551 8.90711C18.8629 8.77393 18.6677 8.6454 18.4655 8.52848C17.7913 10.1831 17.0909 11.827 16.4083 13.4778C16.2914 13.7867 16.0155 14.0709 15.6672 14.0616C14.6963 14.0701 13.7253 14.0624 12.7544 14.0639C12.7598 11.1704 12.7552 8.27684 12.7552 5.3833Z" fill="#F8BD15"/>
<path d="M7.55225 7.9168C8.51088 7.49171 9.5241 7.19748 10.5535 7.00159C10.5581 8.98068 10.5473 10.9598 10.5588 12.9389C10.1837 12.9396 9.66094 13.0713 9.46491 12.64C8.80993 11.0736 8.20031 9.48629 7.55225 7.9168Z" fill="#DF212F"/>
<path d="M14.1621 7.00391C15.1738 7.19361 16.1747 7.4739 17.1141 7.89899C17.151 8.06237 17.018 8.22806 16.9742 8.38757C16.4599 9.65818 15.9518 10.9319 15.4413 12.2048C15.3337 12.4766 15.2453 12.8119 14.9455 12.9296C14.6872 12.9722 14.4235 12.9451 14.1629 12.9474C14.1706 10.966 14.1675 8.98455 14.1621 7.00391Z" fill="#DF212F"/>
<path d="M21.0739 8.92413C22.1555 7.98337 23.6623 7.73714 25.0476 7.82928C26.0308 7.93226 27.0932 8.13048 27.8243 8.85909C28.4432 9.44446 28.5885 10.3814 28.4278 11.1897C28.291 11.8943 27.8236 12.5161 27.1924 12.8475C27.7767 13.182 28.354 13.6233 28.5777 14.2908C28.8176 15.0751 28.643 15.9439 28.2602 16.6531C27.7598 17.566 26.8088 18.1405 25.8225 18.3767C24.797 18.6152 23.7184 18.4967 22.7244 18.1762C22.0141 17.9392 21.3345 17.5877 20.771 17.0875C20.9916 16.7693 21.1854 16.434 21.396 16.1096C21.5059 15.9346 21.6689 15.7704 21.8865 15.7565C22.2524 15.6992 22.5622 15.9354 22.8697 16.0933C23.6369 16.5145 24.5525 16.705 25.4135 16.5083C25.8233 16.4201 26.1884 16.1165 26.2976 15.7015C26.4121 15.2757 26.4467 14.7685 26.1753 14.3937C25.8771 13.9779 25.3482 13.8277 24.8662 13.779C24.2696 13.7433 23.6723 13.7782 23.0765 13.7588C23.0888 13.1533 23.0719 12.5471 23.0842 11.9423C23.7392 11.9299 24.3988 11.9834 25.0499 11.8889C25.4266 11.8401 25.8148 11.6435 25.987 11.2865C26.1646 10.8328 26.1169 10.2056 25.6749 9.9222C25.1606 9.5877 24.5102 9.59235 23.9267 9.68836C23.3971 9.7805 22.9389 10.0747 22.45 10.2791C22.1886 10.3945 21.8596 10.3055 21.7073 10.0577C21.4767 9.69146 21.2953 9.29657 21.0739 8.92413Z" fill="#FEFAFA"/>
<path d="M32.4686 10.7902C33.5456 10.6369 34.7233 10.7987 35.6105 11.4708C36.3569 12.0252 36.8236 12.9025 36.955 13.8193C37.1026 14.8615 36.9619 15.9842 36.3838 16.8793C35.8941 17.6536 35.0869 18.1971 34.2006 18.3938C33.1197 18.6292 31.9351 18.4983 30.9803 17.916C30.1269 17.3872 29.5527 16.4658 29.3774 15.4793C29.2198 14.5711 29.2782 13.597 29.6895 12.7616C30.1923 11.6752 31.3008 10.9404 32.4686 10.7902Z" fill="#FEFAFA"/>
<path d="M48.3097 10.7895C49.4359 10.6285 50.6775 10.8205 51.5708 11.5739C52.268 12.1453 52.6855 13.0071 52.7977 13.8976C52.9315 14.9676 52.7631 16.1206 52.1258 17.011C51.6346 17.7171 50.8697 18.2057 50.0371 18.3931C48.9462 18.6347 47.7339 18.4984 46.7976 17.8565C46.0403 17.3408 45.526 16.51 45.3392 15.6149C45.1194 14.5534 45.2132 13.3919 45.759 12.4403C46.294 11.5274 47.2727 10.9243 48.3097 10.7895Z" fill="#FEFAFA"/>
<path d="M60.5542 11.0342C61.5559 10.908 62.5561 10.7167 63.5701 10.7431C64.3219 10.7647 65.0576 11.0861 65.5965 11.6134C66.1762 12.1941 66.5275 13.0001 66.5698 13.8216C66.5705 15.3826 66.5698 16.9444 66.5698 18.5061C66.1339 18.4968 65.6964 18.527 65.2621 18.493C64.8631 18.4542 64.85 17.9641 64.664 17.6939C64.1643 17.9726 63.7415 18.4078 63.1695 18.5386C62.3839 18.7376 61.4929 18.6687 60.8056 18.2111C60.2406 17.8255 59.9907 17.1194 59.9585 16.4573C59.9123 15.6745 60.2813 14.8724 60.9248 14.4264C61.3953 14.1236 61.9272 13.9393 62.4561 13.7674C63.0427 13.5994 63.6569 13.5716 64.2635 13.5607C64.2819 13.1271 64.0436 12.6749 63.6116 12.5518C62.8797 12.3544 62.1363 12.613 61.4053 12.6796C61.1162 12.7214 60.8356 12.5495 60.7088 12.2916C60.5189 11.9022 60.5404 11.4554 60.5542 11.0342Z" fill="#FEFAFA"/>
<path d="M38.4907 15.0442C38.7367 13.6892 38.6299 12.3055 38.7114 10.9373C40.6156 10.9366 42.5198 10.9366 44.424 10.9373C44.4209 13.4608 44.4278 15.9834 44.4201 18.5068C43.6868 18.5068 42.9534 18.5061 42.2207 18.5076C42.2161 16.5556 42.22 14.6036 42.2184 12.6524C41.6841 12.6509 41.1491 12.6516 40.6148 12.6524C40.551 13.7821 40.5226 14.9211 40.2858 16.0314C40.1305 16.7453 39.873 17.4747 39.3479 17.9997C38.7959 18.5703 37.9572 18.7384 37.1946 18.7043C37.0186 18.7082 36.8149 18.5959 36.8187 18.3977C36.7949 17.9331 36.8164 17.4662 36.8095 17.0008C37.1516 16.9722 37.5014 16.8638 37.772 16.6462C38.1825 16.2142 38.3931 15.6257 38.4907 15.0442Z" fill="#FEFAFA"/>
<path d="M52.7402 10.9382C55.0788 10.9358 57.4181 10.9374 59.7567 10.9374C59.7574 11.4732 59.7574 12.009 59.7567 12.5441C58.9879 12.5448 58.2199 12.5441 57.4512 12.5448C57.4496 14.4968 57.4519 16.448 57.4504 18.4C56.6816 18.4008 55.9129 18.4008 55.1441 18.4C55.1426 16.448 55.1449 14.4968 55.1434 12.5448C54.3423 12.5433 53.5413 12.5464 52.7402 12.5433C52.741 12.0082 52.7402 11.4732 52.7402 10.9382Z" fill="#FEFAFA"/>
<path d="M68.2182 11.6195C68.897 11.1356 69.7403 10.9443 70.5621 10.9397C71.5699 10.9327 72.5778 10.9389 73.5856 10.9373C73.5856 13.4252 73.5864 15.9122 73.5856 18.4C72.8837 18.4008 72.1819 18.4 71.4808 18.4C71.4769 17.4213 71.4884 16.4418 71.4738 15.4631C71.2017 15.484 70.8873 15.5134 70.7174 15.7596C70.2138 16.4 70.0693 17.2401 69.6365 17.9222C69.4228 18.2622 69.0092 18.3814 68.6318 18.393C68.0452 18.4093 67.4586 18.3969 66.8721 18.3984C67.4117 17.4956 67.9437 16.5874 68.4926 15.6907C68.6825 15.3686 69.0031 15.1518 69.3636 15.0697C68.6687 14.9257 67.9391 14.5703 67.6278 13.8897C67.2641 13.1131 67.5816 12.1491 68.2182 11.6195Z" fill="#FEFAFA"/>
<path d="M70.2568 12.4371C70.6473 12.2954 71.074 12.3689 71.4807 12.3511C71.4799 12.9899 71.4814 13.628 71.4799 14.2667C70.9894 14.235 70.3906 14.3953 70.0108 13.9888C69.5411 13.5768 69.6533 12.6585 70.2568 12.4371Z" fill="#DF212F"/>
<path d="M32.611 12.5586C33.0684 12.4084 33.6111 12.4138 34.027 12.6794C34.519 13.0132 34.6497 13.6543 34.6897 14.2118C34.722 14.8986 34.7227 15.6357 34.3814 16.2536C33.9378 17.0395 32.7124 17.0828 32.1266 16.4448C31.7692 16.0244 31.6677 15.4468 31.6862 14.9086C31.7069 14.3271 31.6954 13.7162 31.9537 13.1804C32.0805 12.897 32.3196 12.6655 32.611 12.5586Z" fill="#DF212F"/>
<path d="M48.4494 12.5556C49.0144 12.3713 49.7486 12.4302 50.1345 12.9366C50.5504 13.5243 50.5404 14.2877 50.5289 14.9784C50.4943 15.6009 50.3613 16.3257 49.7978 16.6857C49.2281 17.0078 48.4194 16.9443 47.9643 16.4496C47.6045 16.0299 47.4992 15.4523 47.5207 14.9126C47.5407 14.3295 47.5238 13.7155 47.7852 13.1789C47.9151 12.894 48.155 12.6609 48.4494 12.5556Z" fill="#DF212F"/>
<path d="M6.521 14.7508C10.4416 14.7508 14.3623 14.7501 18.2829 14.7508C18.2829 15.2154 18.2829 15.6808 18.2829 16.1453C14.3623 16.1453 10.4416 16.1453 6.521 16.1453C6.521 15.6808 6.521 15.2154 6.521 14.7508Z" fill="#F8BD15"/>
<path d="M62.2117 15.4027C62.8036 15.0729 63.5063 15.0977 64.162 15.0682C64.1743 15.4469 64.2773 15.8309 64.2312 16.2064C63.7477 16.75 62.9305 17.0404 62.2332 16.7817C61.6582 16.5742 61.7028 15.6621 62.2117 15.4027Z" fill="#DF212F"/>
<path d="M6.54882 17.0923C7.7181 17.0915 8.88738 17.093 10.0567 17.0923C10.0574 19.076 10.0559 21.0605 10.0574 23.045C10.4633 23.0559 10.8761 23.0419 11.269 22.9258C11.4358 22.8569 11.5603 22.7144 11.6695 22.575C12.5344 21.4043 13.0071 19.9951 13.8743 18.8251C14.2133 18.3482 14.63 17.9084 15.1597 17.649C16.136 17.2138 17.2222 17.1612 18.2739 17.1898C18.2723 17.9014 18.2785 18.613 18.2723 19.3246C18.2823 19.5816 18.1701 19.8495 17.9456 19.9835C17.6074 20.1794 17.2045 20.2057 16.8532 20.3698C16.5465 20.4984 16.2989 20.7369 16.1121 21.0086C15.5402 21.7984 15.3249 22.7887 14.7414 23.5716C14.5454 23.834 14.271 24.0206 13.9796 24.1608C14.4339 24.2731 14.8652 24.4906 15.2081 24.8135C15.5863 25.1937 15.8761 25.6513 16.1475 26.112C17.2176 28.0175 18.3016 29.9161 19.3686 31.824C18.3146 31.8255 17.2607 31.824 16.2067 31.8255C15.8515 31.8348 15.4718 31.7303 15.2365 31.4469C15.0044 31.2138 14.9152 30.8886 14.7499 30.6122C13.9212 29.1519 13.0986 27.6869 12.2691 26.2274C12.1054 25.9362 11.8379 25.7024 11.5088 25.6304C11.0314 25.5313 10.5402 25.5863 10.0567 25.5731C10.0567 27.6242 10.0567 29.6761 10.0567 31.728C8.98117 31.7295 7.90645 31.7249 6.83096 31.7303C6.74563 31.7024 6.51961 31.7907 6.54959 31.6296C6.54652 26.7841 6.54882 21.9386 6.54882 17.0923Z" fill="#FEFAFA"/>
<path d="M23.0906 20.7748C24.4252 20.6323 25.8374 20.8321 26.9921 21.5553C27.9638 22.1569 28.6933 23.124 29.0531 24.2111C29.4013 25.2239 29.4521 26.3187 29.3429 27.3772C29.2906 27.9533 29.1061 28.5084 28.8363 29.0171C28.4089 29.9471 27.7024 30.7492 26.8252 31.2719C25.6252 31.9711 24.1753 32.1484 22.8185 31.9339C21.6146 31.7543 20.463 31.1743 19.642 30.2614C18.9463 29.4569 18.465 28.4527 18.3366 27.3888C18.1675 26.0067 18.3267 24.5433 19.0178 23.3168C19.818 21.8239 21.4416 20.9211 23.0906 20.7748Z" fill="#FEFAFA"/>
<path d="M35.2651 20.9103C36.1123 20.6858 37.0448 20.6331 37.872 20.9622C38.9228 21.3904 39.6478 22.3544 40.0852 23.3749C40.4465 24.1376 40.5511 24.9908 40.5957 25.8255C40.6648 27.3625 40.2851 28.9428 39.3979 30.208C38.7891 31.0799 37.8627 31.7334 36.8188 31.9386C35.9424 32.1097 34.9976 32.0346 34.1958 31.6211C33.9136 31.4848 33.6615 31.2959 33.4009 31.124C33.4032 32.5015 33.4063 33.8789 33.4024 35.2572C32.3346 35.2975 31.2668 35.3307 30.1982 35.3594C30.1982 30.5479 30.1982 25.7373 30.1982 20.9258C30.8624 20.9289 31.5274 20.918 32.1924 20.9297C32.5107 20.9258 32.8566 21.0791 32.9788 21.3935C33.0742 21.6699 33.1264 21.9587 33.2025 22.2405C33.7599 21.6265 34.4602 21.1287 35.2651 20.9103Z" fill="#FEFAFA"/>
<path d="M46.0818 20.7778C47.5293 20.6152 49.0776 20.8475 50.293 21.6984C51.3769 22.4472 52.0711 23.6767 52.3064 24.9652C52.5362 26.2489 52.4801 27.6102 52.005 28.8328C51.5668 30.0066 50.6512 30.993 49.5119 31.5017C48.3565 32.0244 47.0442 32.1274 45.8012 31.9323C44.555 31.7317 43.3504 31.1177 42.5524 30.1181C41.6422 29.0178 41.2709 27.5467 41.3232 26.1336C41.3608 24.7499 41.8083 23.3229 42.7961 22.3271C43.6479 21.415 44.8625 20.9195 46.0818 20.7778Z" fill="#FEFAFA"/>
<path d="M65.1705 21.1255C66.6458 20.8801 68.1395 20.6904 69.6385 20.7376C70.9385 20.7918 72.2315 21.4492 72.9557 22.5556C73.5169 23.3686 73.7183 24.3806 73.6822 25.3586C73.6807 27.5491 73.6822 29.7395 73.6822 31.9308C73.1256 31.9277 72.569 31.9416 72.0132 31.9238C71.7265 31.9145 71.3967 31.8363 71.2375 31.5715C71.0677 31.2773 70.9908 30.9412 70.8762 30.6238C69.6724 32.0098 67.5714 32.4952 65.8893 31.7736C65.302 31.5297 64.8207 31.0512 64.5701 30.4635C64.1642 29.5266 64.0797 28.4302 64.4033 27.4554C64.7961 26.441 65.7002 25.6877 66.7173 25.3578C67.3722 25.1588 68.0265 24.9405 68.7091 24.8584C69.2964 24.7825 69.8899 24.7693 70.4819 24.7639C70.5418 24.1182 70.1213 23.4523 69.4748 23.3222C68.7591 23.1844 68.0257 23.3276 67.3177 23.4492C66.8595 23.5227 66.379 23.6923 65.9239 23.5212C65.5749 23.395 65.3558 23.0558 65.2628 22.7089C65.1313 22.1925 65.1344 21.6536 65.1705 21.1255Z" fill="#FEFAFA"/>
<path d="M53.3408 20.9249C54.4102 20.9265 55.4795 20.9242 56.5488 20.9257C56.5465 22.2366 56.5527 23.5475 56.545 24.8576C57.6789 24.8746 58.8128 24.8576 59.9467 24.8669C59.9598 23.5529 59.9483 22.2389 59.9521 20.9249C61.023 20.9265 62.0939 20.9234 63.1647 20.9265C63.1647 24.5587 63.1647 28.1901 63.1647 31.8223C62.0939 31.8278 61.023 31.8216 59.9521 31.8254C59.9513 30.3125 59.9529 28.7995 59.9513 27.2857C58.8174 27.2857 57.6828 27.2857 56.5488 27.2865C56.5504 28.7972 56.5442 30.3086 56.5519 31.82C55.4818 31.8308 54.4117 31.82 53.3408 31.8254C53.3408 28.1917 53.3408 24.5587 53.3408 20.9249Z" fill="#FEFAFA"/>
<path d="M23.1669 23.2432C23.7796 23.0852 24.4707 23.1123 25.0265 23.439C25.4801 23.7217 25.7507 24.225 25.8975 24.7275C26.0997 25.5118 26.1143 26.3334 26.052 27.1371C25.9852 27.8734 25.793 28.6624 25.2233 29.1727C24.656 29.638 23.8542 29.6868 23.1684 29.5134C22.6864 29.391 22.2828 29.0504 22.0522 28.6106C21.6763 27.9323 21.6494 27.127 21.6794 26.3697C21.6901 25.5823 21.7401 24.7515 22.1383 24.0523C22.3574 23.6574 22.7326 23.3601 23.1669 23.2432Z" fill="#DF212F"/>
<path d="M46.2199 23.2417C46.8695 23.076 47.616 23.1163 48.1795 23.5119C48.7138 23.9231 48.9544 24.6029 49.0535 25.251C49.1596 26.0144 49.1612 26.7973 49.0443 27.5599C48.9382 28.201 48.6892 28.8747 48.1441 29.2657C47.5614 29.6552 46.7995 29.683 46.1438 29.4895C45.6203 29.3354 45.2259 28.8956 45.0314 28.3946C44.7139 27.6041 44.7116 26.7322 44.7354 25.8929C44.7762 25.1867 44.8807 24.4364 45.3151 23.8557C45.5326 23.5514 45.8617 23.3385 46.2199 23.2417Z" fill="#DF212F"/>
<path d="M33.397 24.2613C33.8029 23.789 34.3333 23.391 34.9606 23.2958C35.4911 23.2068 36.1307 23.2168 36.5204 23.6473C37.1054 24.2644 37.1754 25.175 37.2015 25.9842C37.2146 26.9822 37.1623 28.0701 36.565 28.9118C36.2106 29.4228 35.5641 29.6458 34.9629 29.5986C34.3802 29.5807 33.7752 29.333 33.4093 28.8707C33.3885 27.3345 33.4162 25.7975 33.397 24.2613Z" fill="#DF212F"/>
<path d="M67.7779 27.3469C68.6458 27.0519 69.5691 27.0024 70.4724 26.8862C70.4701 27.4453 70.4831 28.0051 70.467 28.5641C70.1718 28.7345 69.9765 29.0318 69.6775 29.1959C69.2454 29.4414 68.7396 29.5157 68.2507 29.532C67.8409 29.5266 67.352 29.4236 67.1383 29.0302C66.8377 28.4294 67.1283 27.5723 67.7779 27.3469Z" fill="#DF212F"/>
</g>
<defs>
<clipPath id="clip0_349_148">
<rect width="80" height="40" fill="white"/>
</clipPath>
</defs>
</svg>
