<svg width="40" height="40" viewBox="0 0 40 40" fill="none" xmlns="http://www.w3.org/2000/svg">
<g clip-path="url(#clip0_347_854)">
<path d="M20 40C31.0457 40 40 31.0457 40 20C40 8.9543 31.0457 0 20 0C8.9543 0 0 8.9543 0 20C0 31.0457 8.9543 40 20 40Z" fill="#26A17B"/>
<path fill-rule="evenodd" clip-rule="evenodd" d="M22.4025 21.7288V21.7263C22.265 21.7363 21.5563 21.7788 19.975 21.7788C18.7125 21.7788 17.8238 21.7413 17.5113 21.7263V21.7301C12.6512 21.5163 9.02375 20.6701 9.02375 19.6576C9.02375 18.6463 12.6512 17.8001 17.5113 17.5826V20.8876C17.8288 20.9101 18.7388 20.9638 19.9963 20.9638C21.505 20.9638 22.2613 20.9013 22.4025 20.8888V17.5851C27.2525 17.8013 30.8713 18.6476 30.8713 19.6576C30.8713 20.6701 27.2525 21.5138 22.4025 21.7288ZM22.4025 17.2413V14.2838H29.17V9.7738H10.7438V14.2838H17.5113V17.2401C12.0113 17.4926 7.875 18.5826 7.875 19.8876C7.875 21.1926 12.0113 22.2813 17.5113 22.5351V32.0126H22.4025V22.5326C27.8938 22.2801 32.02 21.1913 32.02 19.8876C32.02 18.5838 27.8938 17.4951 22.4025 17.2413Z" fill="white"/>
</g>
<defs>
<clipPath id="clip0_347_854">
<rect width="40" height="40" fill="white"/>
</clipPath>
</defs>
</svg>
