<svg width="118" height="40" viewBox="0 0 118 40" fill="none" xmlns="http://www.w3.org/2000/svg">
<path d="M0.666504 4.01253H11.6665C12.6665 4.01253 15.6665 3.6792 16.9998 8.34587C17.9998 11.3459 19.3332 16.0125 21.3332 23.0125H21.9998C23.9998 15.6792 25.6665 10.6792 26.3332 8.34587C27.6665 3.6792 30.9998 4.01253 32.3332 4.01253H42.6665V36.0125H31.9998V17.0125H31.3332L25.6665 36.0125H17.6665L11.9998 17.0125H10.9998V36.0125H0.666504M46.9998 4.01253H57.6665V23.0125H58.6665L65.6665 7.34587C66.9998 4.34587 69.9998 4.01253 69.9998 4.01253H79.9998V36.0125H69.3332V17.0125H68.6665L61.6665 32.6792C60.3332 35.6792 56.9998 36.0125 56.9998 36.0125H46.9998M94.3332 26.3459V36.0125H84.3332V19.3459H117C115.667 23.3459 111 26.3459 105.667 26.3459" fill="#0F754E"/>
<path d="M117.667 17.3459C119 11.3459 115 4.01257 106.333 4.01257H83.6665C84.3332 11.0126 90.3332 17.3459 96.6665 17.3459" fill="url(#paint0_linear_347_739)"/>
<defs>
<linearGradient id="paint0_linear_347_739" x1="113.666" y1="-0.320759" x2="86.9998" y2="-0.320759" gradientUnits="userSpaceOnUse">
<stop stop-color="#1F5CD7"/>
<stop offset="1" stop-color="#02AEFF"/>
</linearGradient>
</defs>
</svg>
