<svg width="40" height="40" viewBox="0 0 40 40" fill="none" xmlns="http://www.w3.org/2000/svg">
<path d="M20.1858 2.5C22.9585 2.5 25.5966 3.13526 27.9639 4.27163C28.3352 4.43912 28.7089 4.63959 29.0789 4.84023L27.4557 6.27807L25.0223 3.7707L20.8292 7.44776L18.36 4.80639L10.6495 11.6599L15.586 17.0423L13.6589 18.7134L18.5292 24.0958L16.6019 25.7663L23.5686 33.422L27.692 29.6776L31.2782 33.6903C30.5674 34.2253 29.7897 34.7612 28.9452 35.2285C26.3747 36.6658 23.3984 37.5 20.2199 37.5C10.4459 37.5 2.50011 29.6455 2.50011 19.985C2.4656 10.3898 10.4128 2.5 20.1858 2.5ZM16.9388 18.9145L21.1661 15.17L24.9545 19.3487L20.7262 23.0927L16.9388 18.9145ZM19.9494 26.1356L24.1423 22.358L27.9639 26.5363L23.7365 30.2809L19.9494 26.1356ZM13.9309 11.7941L18.157 8.04969L21.9444 12.2284L17.717 15.9726L13.9309 11.7941ZM21.6734 9.78766L24.8187 6.97964L27.66 10.0888L24.5148 12.9299L21.6734 9.78766ZM27.2877 22.6583L30.4319 19.8502L33.273 22.9917L30.1277 25.8016L27.2877 22.6583ZM30.0603 28.9773L33.2057 26.1686L36.0446 29.2776L32.9004 32.1184L30.0603 28.9773ZM31.3455 14.5348L33.442 12.6625L35.3351 14.7359L33.2391 16.6075L31.3455 14.5348ZM28.6402 8.35016L30.7367 6.44503L32.6312 8.55078L30.5331 10.4229L28.6402 8.35016ZM34.0168 20.7199L36.1132 18.8477L38.0406 20.9205L35.9109 22.7921L34.0168 20.7199ZM24.5821 16.0729L27.7275 13.2648L30.5675 16.3732L27.4234 19.1819L24.5821 16.0729Z" fill="#006AB3"/>
</svg>
