<svg width="63" height="40" viewBox="0 0 63 40" fill="none" xmlns="http://www.w3.org/2000/svg">
<g clip-path="url(#clip0_347_734)">
<path d="M63 37.7203C63 39.025 61.9543 40.0816 60.6629 40.0816H2.33658C1.04605 40.0816 0 39.025 0 37.7203V2.30572C0 1.00183 1.04605 -0.0554199 2.33658 -0.0554199H60.663C61.9544 -0.0554199 63.0001 1.00183 63.0001 2.30572L63 37.7203Z" fill="#21246E"/>
<path d="M23.9449 11.5666L16.9352 28.4665H12.36L8.91289 14.9808C8.70063 14.1491 8.51924 13.8466 7.88295 13.4934C6.84071 12.924 5.12616 12.3898 3.6123 12.0572L3.71819 11.5667H11.0791C12.018 11.5667 12.8619 12.1994 13.0742 13.29L14.8969 23.0714L19.3988 11.5667L23.9449 11.5666ZM41.8662 22.9462C41.8865 18.4883 35.761 18.2456 35.805 16.2513C35.817 15.6426 36.3881 14.9984 37.6388 14.8357C38.2598 14.7522 39.9689 14.6911 41.9061 15.5895L42.6653 12.0075C41.6231 11.6253 40.2834 11.2593 38.6183 11.2593C34.3417 11.2593 31.331 13.5575 31.3057 16.846C31.2776 19.2778 33.4536 20.6347 35.095 21.4446C36.7804 22.2734 37.3439 22.8024 37.338 23.5456C37.3269 24.6799 35.9932 25.1756 34.7493 25.1979C32.5733 25.2321 31.3112 24.6037 30.3033 24.1294L29.5199 27.8347C30.5294 28.303 32.3987 28.7097 34.3332 28.7337C38.8784 28.7335 41.8519 26.4597 41.8662 22.9462ZM53.1598 28.4664H57.1627L53.6699 11.5664H49.9745C49.1442 11.5664 48.4442 12.0557 48.1323 12.8052L41.6433 28.4663H46.1851L47.0866 25.9424H52.6385L53.1598 28.4664ZM48.3314 22.4788L50.61 16.1331L51.9208 22.4788H48.3314ZM30.1286 11.5666L26.5485 28.4664H22.2207L25.8017 11.5664H30.1286V11.5666Z" fill="white"/>
</g>
<defs>
<clipPath id="clip0_347_734">
<rect width="63" height="40" fill="white"/>
</clipPath>
</defs>
</svg>
