<svg width="63" height="40" viewBox="0 0 63 40" fill="none" xmlns="http://www.w3.org/2000/svg">
<g clip-path="url(#clip0_330_692)">
<path fill-rule="evenodd" clip-rule="evenodd" d="M11.2919 19.1116L11.5177 17.7548C13.3241 17.3025 15.8078 17.0764 16.4852 18.6594C16.711 19.3378 15.8078 23.1821 15.8078 24.3128H14.2273V23.6344C13.7757 23.8605 13.0983 24.7651 11.7435 24.3128C9.71139 23.8605 9.93718 20.9207 11.9693 20.2423C12.8725 19.7901 14.0015 19.7901 15.1304 19.7901C15.1304 18.2071 13.0983 18.6594 11.5177 18.8855L11.2919 19.1116ZM16.711 22.956C17.3884 23.1821 20.0979 23.6344 19.8721 22.2776C19.6463 21.5992 17.84 21.5992 17.3884 20.4685C16.711 19.3378 17.3884 18.2071 18.2916 17.7548C19.1947 17.3025 20.7753 17.5287 21.9043 17.5287L21.6785 18.8855C20.7753 18.8855 19.6463 18.4332 19.1947 19.3378C18.9689 20.4685 22.5817 20.2423 21.4527 23.1821C21.0011 24.0867 20.5495 24.3128 19.4205 24.539C18.2916 24.7651 17.6142 24.539 16.4852 24.539V23.1821L16.711 22.956ZM9.48559 24.539H7.67924L8.35662 21.1469C8.58242 20.2423 8.80821 18.4332 8.80821 17.5287L5.87289 24.539H4.29233L3.84074 17.7548C3.61494 18.2071 2.71177 23.4083 2.48597 24.539H0.905414C1.357 21.8253 2.26018 18.8855 2.48597 16.1718C3.16336 15.9457 4.74391 16.1718 5.4213 16.1718V21.5992C5.87289 21.373 6.32447 19.5639 6.77606 18.8855C7.22765 17.9809 7.67924 16.8503 7.90503 16.1718H11.0662C10.6146 18.8855 9.71139 21.8253 9.71139 24.7651L9.48559 24.539ZM30.7102 34.2629C30.936 33.8106 31.3876 33.8106 31.6134 33.3584H29.8071C29.5813 33.3584 29.1297 32.6799 28.9039 32.4538H31.8392C32.5166 32.4538 32.5166 32.4538 32.7424 32.0015C32.9682 31.5492 33.194 31.5492 33.4198 31.097H27.7749L27.3233 30.1924H34.3229C34.5487 29.7401 35.0003 29.514 35.0003 28.8356H26.646L26.1944 27.931H35.6777L36.1293 26.5742H25.7428C25.517 26.3481 25.2912 25.8958 25.2912 25.6697H36.5809L37.0325 24.3128H34.0972V24.539C33.6456 24.7651 32.7424 24.539 32.065 24.539C32.2908 22.2776 32.9682 20.2423 33.194 17.5287H35.0003V18.4332C35.6777 18.2071 35.2261 17.5287 37.0325 17.5287L36.3551 19.3378C35.2261 19.3378 35.0003 19.5639 34.7745 20.6946H36.8067L37.0325 20.2423C37.2583 19.1116 37.2583 18.8855 37.7099 17.9809V17.3025H25.517V17.7548H26.646C26.646 19.3378 26.4202 19.3378 25.9686 19.3378H25.2912L25.0654 20.9207H26.4202C27.5491 16.398 31.3876 17.5287 32.2908 18.8855C32.5166 19.5639 32.7424 20.4685 32.5166 21.1469C32.2908 22.0514 32.5166 21.8253 28.2265 21.8253C28.0007 22.7299 28.9039 23.1821 29.5813 23.4083C30.7102 23.6344 31.3876 23.1821 32.2908 22.956L32.065 24.539C31.1618 24.9912 29.5813 24.9912 28.4523 24.7651C27.3233 24.3128 26.8717 23.6344 26.4202 22.5037V22.0514H25.0654C24.8396 22.5037 24.8396 22.956 25.0654 23.4083H26.1944L25.7428 24.7651C25.0654 25.2174 23.7106 24.9912 23.259 24.539C22.5817 23.8605 23.4848 20.2423 23.7106 19.1116C23.9364 18.4332 23.9364 17.0764 24.1622 16.398H25.517C25.9686 16.398 25.7428 16.398 25.7428 16.6241H37.4841C37.4841 16.1718 37.2583 15.7196 37.2583 15.2673H25.7428C25.7428 14.815 25.7428 14.3627 26.1944 14.3627H37.0325L36.5809 13.0059H26.646L27.0975 12.1013H36.1293L35.4519 10.7445H27.5491C27.5491 10.5184 28.0007 9.83996 28.2265 9.61383H34.7745C34.5487 9.16155 34.0972 8.70927 33.8714 8.257H29.1297C29.3555 7.80472 29.5813 7.57858 29.8071 7.35244H32.7424C32.2908 6.67403 31.6134 6.22175 31.3876 5.76947C31.1618 5.76947 29.8071 4.41264 29.3555 4.41264C27.3233 3.05581 25.7428 2.3774 23.4848 1.69898C17.84 0.342153 11.7435 1.24671 7.22765 5.09106C4.74391 7.1263 3.16336 8.93541 1.5828 11.8752C1.13121 12.7798 0.905414 13.4582 0.453825 14.3627C-0.90094 17.9809 -0.675146 22.7299 0.453825 26.3481C0.679619 26.8003 0.679619 27.2526 0.905414 27.7049C1.13121 28.3833 2.26018 30.4186 2.71177 31.097C4.06653 32.9061 5.1955 34.2629 7.00186 35.6197C9.034 37.2027 10.3888 37.655 12.6467 38.7857C13.0983 39.0118 13.5499 39.0118 14.0015 39.238C18.0658 40.3686 23.4848 39.9164 27.0975 37.8811C27.5491 37.655 27.7749 37.4288 28.2265 37.2027C28.6781 36.9766 28.9039 36.7504 29.3555 36.5243C30.0329 36.072 30.7102 35.3936 31.3876 34.9413L31.6134 34.7152L30.7102 34.2629Z" fill="#E63D24"/>
<path fill-rule="evenodd" clip-rule="evenodd" d="M61.6441 23.4083C62.0957 23.8606 61.4183 24.7651 60.7409 24.539L60.5151 24.3128V23.4083C60.2893 23.6344 60.2893 24.0867 60.2893 23.8606C60.2893 22.5037 61.6441 22.7299 61.6441 23.4083ZM43.8063 39.238H43.129C42 39.238 40.871 39.238 39.9678 39.0118C37.9357 38.5596 35.2262 37.655 33.6456 36.5243C33.194 36.2982 32.9682 36.072 32.5166 35.8459C32.065 35.3936 30.9361 34.7152 30.4845 34.2629C30.7103 33.8106 31.1619 33.8106 31.3877 33.3584H29.5813C29.3555 33.3584 28.9039 32.68 28.6781 32.4538H31.6135C32.2908 32.4538 32.2908 32.4538 32.5166 32.0015C32.7424 31.5493 32.9682 31.5493 33.194 31.097H27.5492L27.0976 30.1924H34.0972C34.323 29.7402 34.7746 29.514 34.7746 28.8356H26.4202L25.9686 27.9311H35.452L35.9036 26.5742H25.517C25.2912 26.3481 25.0654 25.8958 25.0654 25.6697H36.3551L36.8067 24.3128H33.8714V24.539L34.0972 22.956L34.323 23.1821H37.0325C37.7099 24.539 40.1936 25.2174 42 24.539C42 23.6344 42.2258 23.4083 42.4516 22.7299C41.3226 22.956 40.6452 23.4083 39.5163 22.7299C38.8389 22.2776 38.3873 21.373 38.6131 20.2423C39.0647 18.4332 39.9678 17.7548 41.5484 17.7548C42.2258 17.7548 42.4516 17.981 43.129 18.2071L43.3548 16.6241C42.4516 15.9457 39.9678 15.7196 38.3873 17.0764C37.7099 17.5287 37.7099 17.7548 37.2583 18.2071V17.5287H25.0654L25.2912 16.398H37.0325C37.0325 15.9457 36.8067 15.4934 36.8067 15.0412H25.2912C25.2912 14.5889 25.2912 14.1366 25.7428 14.1366H36.5809L36.1293 12.7798H26.1944L26.646 11.8752H35.6778L35.0004 10.5184H27.0976C27.0976 10.2923 27.5492 9.61384 27.775 9.38771H34.323C34.0972 8.93543 33.6456 8.48315 33.4198 8.03088H28.6781C28.9039 7.5786 29.1297 7.35246 29.3555 7.12632H32.2908C31.8393 6.44791 31.1619 5.99563 30.9361 5.54336L32.9682 3.96039C33.4198 3.73425 33.6456 3.50811 34.0972 3.28197C35.2262 2.60356 36.3551 1.92514 37.7099 1.47287C39.9678 0.568312 43.129 0.116035 45.3869 0.342174C49.4512 0.79445 53.7413 2.37742 56.6766 5.09108C58.2572 6.67405 59.6119 8.03088 60.7409 10.0661C62.5473 13.0059 63.4504 16.1719 63.4504 19.7901C63.4504 23.1821 62.9989 24.7651 62.0957 27.2526C61.8699 27.9311 60.7409 29.9663 60.2893 30.6447C59.1604 32.4538 57.5798 34.0368 55.9992 35.1675C53.9671 36.7504 52.6123 37.4289 50.1286 38.3334L48.0964 39.0118H47.4191C46.5159 39.238 45.6127 39.238 44.7095 39.238V39.0118L43.8063 39.238ZM48.0964 23.6344V24.539H46.2901V23.8606C45.8385 24.0867 45.8385 24.3128 45.1611 24.539C41.5484 25.4435 41.0968 20.6946 45.3869 20.2423H46.5159L46.9675 20.0162C47.4191 18.4332 44.4837 19.1117 43.5806 19.1117C43.8063 17.7548 43.5806 17.3025 46.7417 17.3025C50.3544 17.5287 48.3222 21.5992 48.3222 23.4083L48.0964 23.6344ZM48.7738 24.539C49.2254 22.2776 49.9028 20.0162 50.1286 17.5287H51.9349V18.4332C52.3865 18.2071 52.6123 17.3025 53.9671 17.5287C53.7413 18.2071 53.5155 18.4332 53.2897 19.3378C51.7091 19.3378 51.7091 19.7901 51.2576 21.1469C51.0318 22.2776 50.806 23.1821 50.806 24.3128H48.7738V24.539ZM58.2572 18.4332C58.483 17.981 58.7088 16.6241 58.7088 15.9457H60.7409C60.2893 18.2071 59.3861 22.2776 59.1604 24.539H57.354V23.8606L56.6766 24.3128C55.0961 25.2174 53.0639 24.3128 53.0639 21.8253C53.0639 18.2071 55.9992 17.0764 57.5798 17.981L58.2572 18.6594V18.4332Z" fill="#EF7F1A"/>
<path fill-rule="evenodd" clip-rule="evenodd" d="M9.25959 24.3128C9.48538 21.5991 10.1628 18.4332 10.6144 15.7195H7.45323C7.22744 16.6241 6.77585 17.7548 6.32426 18.4332C6.09847 18.8855 5.42108 20.6946 4.9695 21.1469V15.7195H2.03417C1.58258 18.6593 0.905202 21.373 0.453613 24.0867H2.03417C2.03417 22.956 2.93735 17.7548 3.38894 17.3025L3.84053 24.0867H5.42108L8.35641 17.0764C8.35641 17.7548 7.90482 19.79 7.90482 20.6946L7.22744 24.0867H9.03379L9.25959 24.3128ZM54.87 21.1469C54.87 18.6593 57.8053 17.9809 57.8053 20.2423C57.8053 23.1821 54.87 23.6344 54.87 21.373V21.1469ZM58.2569 18.2071L57.5795 17.5287C55.999 16.6241 53.0637 17.5287 53.0637 21.373C53.0637 23.8605 55.0958 24.7651 56.6764 23.8605L57.3537 23.4083V24.0867H59.1601C59.3859 21.8253 60.2891 17.9809 60.7407 15.4934H58.7085C58.7085 16.1718 58.4827 17.5287 58.2569 17.9809V18.2071Z" fill="#FEFCFD"/>
<path fill-rule="evenodd" clip-rule="evenodd" d="M14.227 21.1469C14.4528 21.8253 14.0012 22.5037 13.7754 22.7298C12.4206 23.6344 11.0659 22.0514 12.4206 21.373C12.8722 21.1469 13.5496 21.1469 14.227 21.1469ZM11.0659 19.1116C12.4206 18.8855 14.6786 18.4332 14.6786 20.0162C13.5496 20.0162 12.4206 20.0162 11.5174 20.4685C9.4853 21.373 9.4853 24.0867 11.2917 24.5389C12.6464 24.7651 13.3238 24.0867 13.7754 23.8605V24.5389H15.3559C15.3559 23.4083 16.2591 19.5639 16.0333 18.8855C15.3559 17.3025 12.8722 17.5287 11.0659 17.9809L10.8401 19.3378L11.0659 19.1116ZM46.5155 21.373C46.5155 22.2776 45.8382 23.6344 44.4834 23.1821C43.806 22.956 43.5802 21.1469 46.5155 21.373ZM46.2898 23.8605C46.5155 24.0867 46.2898 24.0867 46.2898 24.5389H47.8703V23.6344C47.8703 21.8253 49.9025 17.7548 46.2898 17.5287C43.3544 17.3025 43.3544 17.9809 43.1286 19.3378C44.0318 19.3378 46.9671 18.4332 46.5155 20.2423L46.064 20.4685H44.935C40.6449 20.6946 41.3223 25.6696 44.7092 24.7651C45.3866 24.5389 45.3866 24.3128 45.8382 24.0867L46.2898 23.8605ZM27.323 20.0162C27.323 18.4332 29.8068 18.2071 29.8068 20.0162C29.1294 20.2423 28.0004 20.0162 27.323 20.0162ZM25.2909 20.4685V21.8253C25.7425 22.956 25.9683 23.6344 27.323 24.0867C28.2262 24.3128 30.0326 24.3128 30.9357 23.8605L31.1615 22.2776C30.2584 22.5037 29.581 22.956 28.452 22.7298C27.7746 22.7298 26.8715 22.0514 27.0972 21.1469C31.3873 21.1469 31.1615 21.373 31.3873 20.4685C31.6131 19.79 31.6131 18.8855 31.1615 18.2071C30.2584 16.8502 26.4199 15.7195 25.2909 20.2423V20.4685Z" fill="#FEFCFD"/>
<path fill-rule="evenodd" clip-rule="evenodd" d="M37.0321 17.7548C36.5805 18.6594 36.5805 18.8855 36.3547 20.0162V21.373L36.8063 22.5037C37.4837 23.8606 39.9675 24.539 41.7738 23.8606C41.7738 22.956 41.9996 22.7299 42.2254 22.0514C41.0964 22.2776 40.419 22.7299 39.2901 22.0514C38.6127 21.5992 38.1611 20.6946 38.3869 19.5639C38.8385 17.7548 39.7417 17.0764 41.3222 17.0764C41.9996 17.0764 42.2254 17.3025 42.9028 17.5287L43.1286 15.9457C42.2254 15.2673 39.7417 15.0412 38.1611 16.398C37.4837 16.8503 37.4837 17.0764 37.0321 17.5287V17.7548ZM16.4849 22.7299V24.0867C17.6138 24.3128 18.2912 24.3128 19.4202 24.0867C20.5492 23.8606 21.0007 23.6344 21.4523 22.7299C22.5813 19.7901 18.9686 20.0162 19.1944 18.8855C19.646 17.981 20.775 18.4332 21.6781 18.4332L21.9039 17.0764C20.775 17.0764 19.1944 16.8503 18.2912 17.3025C17.6138 17.7548 16.9365 19.1116 17.388 20.0162C17.8396 20.9208 19.646 20.9208 19.8718 21.8253C20.0976 23.1821 17.388 22.5037 16.7107 22.5037L16.4849 22.7299ZM23.9361 21.373L24.1619 20.4685L24.3877 18.8855H25.065C25.5166 18.8855 25.5166 18.8855 25.7424 17.3025H24.6135V16.8503L24.8392 15.7196C24.8392 15.4934 25.065 15.7196 24.6135 15.4934H23.2587C23.0329 16.1718 23.0329 17.5287 22.8071 18.2071C22.5813 19.5639 21.6781 22.956 22.3555 23.6344C22.8071 24.0867 24.3877 24.3128 24.8392 23.8606L25.2908 22.5037H24.1619C23.9361 22.0514 23.9361 21.8253 24.1619 21.1469L23.9361 21.373ZM33.4194 24.3128L33.6452 22.7299L33.871 21.5992L34.0968 20.4685C34.3226 19.5639 34.7742 19.1116 35.6774 19.1116L36.3547 17.3025C34.5484 17.3025 35 17.981 34.3226 18.2071V17.3025H32.5162C32.2905 19.7901 31.6131 22.0514 31.3873 24.3128C31.8389 24.3128 32.9678 24.539 33.4194 24.3128ZM48.5476 24.3128H50.5798C50.8056 23.1821 51.0314 22.2776 51.0314 21.1469C51.2572 19.7901 51.483 19.3378 53.0635 19.3378C53.0635 18.2071 53.5151 18.2071 53.7409 17.5287C52.3861 17.5287 52.1603 18.2071 51.7088 18.4332V17.5287H49.9024C49.6766 19.7901 48.9992 22.2776 48.5476 24.539V24.3128Z" fill="#FEFCFD"/>
<path fill-rule="evenodd" clip-rule="evenodd" d="M54.8701 21.1469C54.8701 23.6344 57.8054 23.1822 57.8054 20.0162C57.8054 17.981 54.8701 18.4333 54.8701 20.9208V21.1469Z" fill="#EF7F1A"/>
<path fill-rule="evenodd" clip-rule="evenodd" d="M14.2269 21.147C13.5495 21.147 12.8721 21.147 12.4205 21.3731C11.0658 22.0515 12.4205 23.6345 13.7753 22.7299C14.0011 22.5038 14.4527 21.8254 14.2269 21.147Z" fill="#E63D24"/>
<path fill-rule="evenodd" clip-rule="evenodd" d="M46.5159 21.3731C43.5806 21.1469 43.8064 22.7299 44.4838 23.1822C45.6128 23.6344 46.5159 22.5037 46.5159 21.3731Z" fill="#EF7F1A"/>
<path fill-rule="evenodd" clip-rule="evenodd" d="M33.6455 22.7299L33.8713 22.956H36.5808L36.1292 21.8253H33.8713L33.6455 22.956V22.7299ZM27.3232 20.0162C28.0006 20.0162 29.1296 20.2424 29.807 20.0162C29.807 18.2071 27.549 18.4333 27.3232 20.0162Z" fill="#E63D24"/>
<path fill-rule="evenodd" clip-rule="evenodd" d="M34.097 20.4686L33.8712 21.5993H36.3549V20.2424L36.1291 20.6947L34.097 20.4686ZM23.9362 21.3731H25.291V21.8254V20.4686H23.9362L23.7104 21.3731H23.9362Z" fill="#ED7B1B"/>
<path fill-rule="evenodd" clip-rule="evenodd" d="M60.7407 24.5389C60.5149 24.3128 60.9664 24.5389 60.5149 24.3128H60.7407L60.5149 23.4082H61.418C61.418 23.6344 61.418 23.6344 61.6438 23.4082C61.6438 22.7298 60.2891 22.5037 60.2891 23.8605C60.5149 24.0866 60.2891 23.6344 60.5149 23.4082V24.3128L60.7407 24.5389Z" fill="#F9BD84"/>
<path fill-rule="evenodd" clip-rule="evenodd" d="M61.1925 23.4083C61.1925 23.6345 61.1925 23.8606 60.9667 23.8606C60.7409 23.8606 60.7409 23.8606 60.7409 23.4083H61.1925ZM60.7409 24.3129V23.8606C61.1925 23.8606 60.9667 23.8606 61.1925 24.0867C61.1925 24.3129 61.4183 24.3129 61.4183 24.539H60.7409C61.4183 24.7652 62.0957 23.8606 61.6441 23.4083V23.8606C61.6441 24.0867 61.6441 24.0867 61.4183 24.3129C60.9667 23.8606 61.4183 24.0867 61.4183 23.4083H60.5151L60.7409 24.3129Z" fill="#FDE6CD"/>
<path fill-rule="evenodd" clip-rule="evenodd" d="M60.7409 24.0868H60.5151C60.9667 24.3129 60.5151 24.0868 60.7409 24.3129H61.4183C61.4183 24.3129 61.4183 24.0868 61.1925 23.8607C60.9667 23.6345 61.1925 23.6345 60.7409 23.6345V24.0868Z" fill="#F0811A"/>
<path fill-rule="evenodd" clip-rule="evenodd" d="M46.29 23.6345V24.3129H48.0964V23.4083C47.8706 23.6345 47.8706 23.8606 48.0964 24.3129H46.5158V23.6345H46.29Z" fill="#FBCA9A"/>
<path fill-rule="evenodd" clip-rule="evenodd" d="M61.644 23.4083C61.4182 23.4083 61.4182 23.6345 61.4182 23.4083C61.4182 24.0867 61.1924 23.8606 61.4182 24.3129C61.4182 24.0867 61.644 24.3129 61.644 23.8606V23.4083Z" fill="#F0811A"/>
<path fill-rule="evenodd" clip-rule="evenodd" d="M61.1923 23.4083H60.7407C60.7407 23.6345 60.7407 23.8606 60.9665 23.8606C61.1923 23.8606 61.1923 23.6345 61.1923 23.4083Z" fill="#F0831F"/>
</g>
<defs>
<clipPath id="clip0_330_692">
<rect width="63" height="40" fill="white"/>
</clipPath>
</defs>
</svg>
