<svg width="123" height="147" viewBox="0 0 123 147" fill="none" xmlns="http://www.w3.org/2000/svg">
<path d="M103.497 0H18.6254C8.35537 0 0 8.35537 0 18.6254V103.497C0 113.767 8.35537 122.122 18.6249 122.122H20.0605V140.739C20.0605 141.608 20.2427 142.466 20.5952 143.26C20.9478 144.054 21.4629 144.765 22.1072 145.347C22.7516 145.929 23.5109 146.37 24.3362 146.641C25.1614 146.911 26.0343 147.006 26.8983 146.918C27.8871 146.818 50.0386 144.313 61.0672 122.122H103.497C113.767 122.122 122.122 113.766 122.122 103.497V18.6254C122.122 8.35537 113.766 0 103.497 0Z" fill="#F5F5FC"/>
<path d="M103.497 0H61.0674V122.122H103.497C113.767 122.122 122.122 113.766 122.122 103.497V18.6254C122.122 8.35537 113.766 0 103.497 0Z" fill="#DFDFF2"/>
<path d="M34.298 48.6012H46.3725C48.8482 48.6012 50.9755 48.9718 52.7544 49.713C54.5482 50.4542 55.9269 51.5512 56.8905 53.004C57.8541 54.4568 58.3359 56.2432 58.3359 58.3631C58.3359 60.0975 58.0394 61.5874 57.4464 62.8326C56.8682 64.0631 56.0455 65.0934 54.9781 65.9235C53.9256 66.7389 52.6877 67.3912 51.2646 67.8804L49.1521 68.9922H38.6564L38.6119 63.7888H46.417C47.5881 63.7888 48.5591 63.5813 49.33 63.1662C50.1009 62.7511 50.679 62.173 51.0645 61.4317C51.4647 60.6905 51.6649 59.8307 51.6649 58.8523C51.6649 57.8146 51.4721 56.9177 51.0867 56.1616C50.7013 55.4056 50.1157 54.8274 49.33 54.4272C48.5443 54.0269 47.5585 53.8268 46.3725 53.8268H40.969V80.9778H34.298V48.6012ZM52.3987 80.9778L45.0161 66.5462L52.0651 66.5017L59.5366 80.6665V80.9778H52.3987ZM81.3508 48.6012H87.9996V69.9929C87.9996 72.4834 87.4659 74.581 86.3986 76.2858C85.346 77.9907 83.8858 79.273 82.0179 80.1328C80.1649 80.9926 78.0302 81.4225 75.6138 81.4225C73.1974 81.4225 71.0478 80.9926 69.1651 80.1328C67.2972 79.273 65.8296 77.9907 64.7623 76.2858C63.7097 74.581 63.1835 72.4834 63.1835 69.9929V48.6012H69.8545V69.9929C69.8545 71.4457 70.0842 72.6316 70.5438 73.5507C71.0034 74.4698 71.663 75.1444 72.5229 75.5743C73.3975 76.0042 74.4278 76.2191 75.6138 76.2191C76.8294 76.2191 77.8597 76.0042 78.7047 75.5743C79.5645 75.1444 80.2168 74.4698 80.6615 73.5507C81.1211 72.6316 81.3508 71.4457 81.3508 69.9929V48.6012Z" fill="#1A1A1A"/>
</svg>
