<svg width="90" height="90" viewBox="0 0 90 90" fill="none" xmlns="http://www.w3.org/2000/svg">
<g clip-path="url(#clip0_809_1079)">
<path d="M82.0935 38.1559H81.4867V30.2523C81.4867 29.8836 81.4093 29.519 81.2597 29.182C81.11 28.845 80.8913 28.5432 80.6178 28.296C80.3442 28.0488 80.0219 27.8617 79.6715 27.7469C79.3212 27.632 78.9506 27.5919 78.5838 27.6291C78.1641 27.6716 68.7601 28.7351 64.0782 38.1559H40.793C39.3368 38.1559 38.1562 39.3364 38.1562 40.7926V82.0931C38.1562 86.453 41.7033 89.9999 46.0631 89.9999H82.0933C86.4532 89.9999 90.0003 86.4529 90.0003 82.0931V46.0629C90.0003 41.703 86.4532 38.1559 82.0935 38.1559Z" fill="#F7EF8A"/>
<path d="M82.0934 90C86.4531 90 90.0002 86.4529 90.0002 82.0932V46.0629C90.0002 41.703 86.4531 38.1561 82.0934 38.1561H81.4866V30.2525C81.4866 29.8838 81.4093 29.5192 81.2596 29.1822C81.1099 28.8453 80.8913 28.5434 80.6177 28.2962C80.3442 28.049 80.0218 27.862 79.6715 27.7471C79.3211 27.6322 78.9506 27.5921 78.5838 27.6293C78.164 27.6718 68.7601 28.7353 64.0781 38.1561V90H82.0934Z" fill="#E8C662"/>
<path d="M43.9372 0H7.90699C3.54709 0 0 3.54709 0 7.90699V43.9372C0 48.2971 3.54709 51.844 7.90682 51.844H8.51625V59.7477C8.51626 60.1164 8.5936 60.481 8.74326 60.8179C8.89293 61.1549 9.1116 61.4567 9.38515 61.7039C9.6587 61.9511 9.98106 62.1382 10.3314 62.2531C10.6817 62.368 11.0523 62.4081 11.4191 62.3709C11.8389 62.3283 21.2428 61.2649 25.9247 51.844H43.9372C48.2971 51.844 51.844 48.297 51.844 43.9372V7.90699C51.844 3.54709 48.297 0 43.9372 0Z" fill="#F5F5FC"/>
<path d="M43.9373 -3.05176e-05H25.9248V51.844H43.9373C48.2972 51.844 51.8441 48.2969 51.8441 43.9372V7.90696C51.8441 3.54706 48.297 -3.05176e-05 43.9373 -3.05176e-05Z" fill="#DFDFF2"/>
<path d="M14.5602 20.2552H19.6862C20.7372 20.2552 21.6403 20.4125 22.3955 20.7272C23.157 21.0419 23.7423 21.5076 24.1514 22.1243C24.5604 22.7411 24.765 23.4995 24.765 24.3994C24.765 25.1357 24.6391 25.7682 24.3874 26.2969C24.1419 26.8192 23.7926 27.2566 23.3395 27.609C22.8927 27.9552 22.3672 28.2321 21.763 28.4398L20.8662 28.9118H16.4105L16.3916 26.7028H19.7051C20.2023 26.7028 20.6145 26.6147 20.9417 26.4385C21.269 26.2623 21.5144 26.0168 21.6781 25.7021C21.848 25.3875 21.9329 25.0225 21.9329 24.6071C21.9329 24.1666 21.8511 23.7858 21.6875 23.4648C21.5239 23.1439 21.2753 22.8984 20.9417 22.7285C20.6082 22.5586 20.1897 22.4736 19.6862 22.4736H17.3923V34H14.5602V20.2552ZM22.2445 34L19.1104 27.8734L22.1029 27.8545L25.2747 33.8678V34H22.2445ZM34.5355 20.2552H37.3581V29.3366C37.3581 30.3939 37.1315 31.2844 36.6784 32.0081C36.2316 32.7319 35.6117 33.2763 34.8187 33.6413C34.032 34.0063 33.1258 34.1888 32.0999 34.1888C31.0741 34.1888 30.1616 34.0063 29.3623 33.6413C28.5693 33.2763 27.9463 32.7319 27.4932 32.0081C27.0463 31.2844 26.8229 30.3939 26.8229 29.3366V20.2552H29.6549V29.3366C29.6549 29.9533 29.7525 30.4568 29.9476 30.847C30.1427 31.2372 30.4227 31.5235 30.7878 31.7061C31.1591 31.8886 31.5965 31.9798 32.0999 31.9798C32.616 31.9798 33.0534 31.8886 33.4121 31.7061C33.7771 31.5235 34.054 31.2372 34.2428 30.847C34.4379 30.4568 34.5355 29.9533 34.5355 29.3366V20.2552Z" fill="#1A1A1A"/>
<path d="M61.7832 69.791V72H54.4671V69.791H61.7832ZM55.3923 58.2552V72H52.5602V58.2552H55.3923ZM60.8298 63.8532V66.0056H54.4671V63.8532H60.8298ZM61.7738 58.2552V60.4737H54.4671V58.2552H61.7738ZM74.6217 58.2552V72H71.7897L66.2673 62.7865V72H63.4352V58.2552H66.2673L71.7992 67.4782V58.2552H74.6217Z" fill="#1A1A1A"/>
<path d="M67.1916 5.31643L68.0071 4.50099C69.0368 3.47126 69.0368 1.80186 68.0071 0.772138C66.9775 -0.257413 65.308 -0.257589 64.2782 0.772138L58.9862 6.06438C57.9564 7.09411 57.9564 8.76351 58.9862 9.79323L64.2782 15.0853C64.7931 15.6002 65.4679 15.8577 66.1426 15.8577C66.8172 15.8577 67.4922 15.6003 68.0069 15.0853C69.0366 14.0556 69.0366 12.3862 68.0069 11.3565L67.25 10.5995C76.9547 11.1745 84.6743 19.2506 84.6743 29.0972C84.6743 30.5534 85.8549 31.7339 87.311 31.7339C88.7672 31.7339 89.9478 30.5534 89.9478 29.0972C89.9478 16.3226 79.8328 5.86751 67.1916 5.31643Z" fill="#F7EF8A"/>
<path d="M30.9618 80.1539L25.6697 74.8618C24.6401 73.8321 22.9706 73.8321 21.9408 74.8618C20.9111 75.8915 20.9111 77.5609 21.9408 78.5907L22.6978 79.3476C12.993 78.7728 5.27344 70.6965 5.27344 60.8499C5.27344 59.3938 4.09289 58.2132 2.63672 58.2132C1.18055 58.2132 0 59.3938 0 60.8499C0 73.6245 10.115 84.0796 22.7563 84.6307L21.9408 85.4461C20.9111 86.4759 20.9111 88.1453 21.9408 89.175C22.4557 89.6898 23.1305 89.9472 23.8052 89.9472C24.4798 89.9472 25.1548 89.6898 25.6695 89.1748L30.9616 83.8827C31.9915 82.853 31.9915 81.1836 30.9618 80.1539Z" fill="#F7EF8A"/>
</g>
<defs>
<clipPath id="clip0_809_1079">
<rect width="90" height="90" fill="white"/>
</clipPath>
</defs>
</svg>
